<?xml version="1.0" standalone="no"?>
<!DOCTYPE svg PUBLIC "-//W3C//DTD SVG 20010904//EN"
 "http://www.w3.org/TR/2001/REC-SVG-20010904/DTD/svg10.dtd">
<svg version="1.0" xmlns="http://www.w3.org/2000/svg"
 width="700.000000pt" height="700.000000pt" viewBox="0 0 700.000000 700.000000"
 preserveAspectRatio="xMidYMid meet">
<metadata>
Created by potrace 1.14, written by Peter Selinger 2001-2017
</metadata>
<g transform="translate(0.000000,700.000000) scale(0.100000,-0.100000)"
fill="#000000" stroke="none">
<path d="M3 6674 c-6 -17 3 -3807 10 -3844 4 -19 9 -51 12 -70 33 -233 131
-524 249 -735 57 -103 58 -105 97 -165 121 -186 302 -380 504 -543 118 -95
343 -224 510 -293 50 -20 546 -188 1103 -373 l1014 -336 1041 346 c573 190
1069 358 1102 373 344 158 567 320 791 571 89 101 120 142 201 262 65 98 203
366 203 394 0 8 4 19 9 24 16 17 87 265 110 380 11 61 25 151 30 200 5 51 10
903 10 1953 l1 1862 -27 0 c-16 1 -1589 2 -3497 3 -2415 1 -3470 -1 -3473 -9z
m6497 -935 l0 -287 -2925 0 -2925 0 -1 147 c-1 295 0 412 5 419 2 4 1319 8
2925 8 l2921 0 0 -287z m-3194 -2963 c-1 -1075 -4 -1957 -7 -1960 -3 -3 -397
125 -875 285 -708 237 -893 303 -999 354 -107 52 -274 151 -295 175 -3 3 -27
23 -55 45 -80 63 -226 213 -297 305 -168 219 -288 484 -343 760 -1 8 -6 40
-10 70 -5 30 -10 64 -12 75 -3 11 -6 431 -8 933 l-3 912 1452 0 1452 0 0
-1954z m3305 1919 c3 -196 -1 -1589 -5 -1645 -11 -150 -18 -225 -21 -230 -2
-3 -6 -26 -10 -50 -3 -25 -15 -80 -25 -122 -115 -451 -392 -840 -781 -1095
-97 -63 -312 -172 -379 -191 -19 -6 -404 -134 -854 -286 -451 -152 -821 -276
-823 -276 -9 0 -2 3919 7 3922 6 2 658 3 1450 3 l1440 0 1 -30z"/>
</g>
</svg>
