<?xml version="1.0" encoding="utf-8"?>
<svg width="347.50513px" height="314.40942px" viewBox="0 0 347.50513 314.40942" version="1.1" xmlns:xlink="http://www.w3.org/1999/xlink" xmlns="http://www.w3.org/2000/svg">
  <path d="M0 0L0 177.817C0 197.123 5.08044 215.413 13.9351 231.38L13.9351 231.38C15.0963 233.557 16.4027 235.589 17.7091 237.622L17.8542 237.622C24.6766 248.073 33.3861 257.363 43.4019 264.911L42.9664 264.766C46.1599 267.234 49.6437 269.411 53.1274 271.443C59.9498 275.507 67.2076 278.846 74.9009 281.459L173.753 314.409L272.604 281.459C317.313 266.508 347.505 224.848 347.505 177.672L347.505 0L0 0L0 0ZM288.136 42.5309C288.136 32.0796 296.555 29.0313 307.006 29.0313C316.587 29.0313 324.425 31.6441 325.732 40.2084L314.264 40.2084C313.538 39.3374 312.668 38.6116 311.361 38.3214C310.055 38.031 308.603 37.8859 307.006 37.8859C302.652 37.8859 298.878 38.7568 298.878 43.2567L298.878 43.9824C298.878 48.4823 302.507 49.3532 307.006 49.3532C311.216 49.3532 313.974 49.0629 315.571 47.0307L306.861 47.0307L306.861 42.2405L325.587 42.2405L325.587 58.0626L320.361 58.0626L319.78 53.7079C316.587 56.9014 311.651 58.0626 307.006 58.0626C296.555 58.0626 288.136 55.0143 288.136 44.563L288.136 42.5309L288.136 42.5309ZM292.491 90.8682L179.994 97.8357L179.994 90.8682L292.491 90.8682L292.491 90.8682ZM246.621 29.7571L261.427 29.7571L273.475 44.418L273.475 29.7571L284.217 29.7571L284.217 57.3369L272.169 57.3369L257.363 40.4987L257.363 57.3369L246.621 57.3369L246.621 29.7571L246.621 29.7571ZM230.219 29.7571L240.96 29.7571L240.96 57.3369L230.219 57.3369L230.219 29.7571L230.219 29.7571ZM194.365 29.7571L205.106 29.7571L205.106 48.6275L226.59 48.6275L226.59 57.3369L194.365 57.3369L194.365 29.7571L194.365 29.7571ZM105.384 29.7571L141.673 29.7571L141.673 38.4666L128.899 38.4666L128.899 57.3369L118.158 57.3369L118.158 38.4666L105.384 38.4666L105.384 29.7571L105.384 29.7571ZM69.8203 29.7571L102.045 29.7571L102.045 36.8698L80.562 36.8698L80.562 40.3536L102.045 40.3536L102.045 46.7404L80.562 46.7404L80.562 50.2242L102.045 50.2242L102.045 57.3369L69.8203 57.3369L69.8203 29.7571L69.8203 29.7571ZM28.8862 29.7572L53.4177 29.7572C60.9658 29.612 66.627 35.9989 66.627 43.5471C66.627 51.0952 61.1111 57.4821 53.4177 57.337L28.8862 57.337L28.8862 29.7572L28.8862 29.7572ZM167.511 299.458L78.8202 269.846C62.998 264.621 49.2081 255.476 38.4666 243.863L167.656 282.62L167.656 299.458L167.511 299.458ZM167.511 277.395L32.5151 236.896C27.4347 230.364 23.3702 223.251 20.0316 215.558L167.511 254.024L167.511 277.395L167.511 277.395ZM167.511 247.783L17.4188 208.59C15.5319 203.074 14.2253 197.268 13.3545 191.462L167.511 225.719L167.511 247.783L167.511 247.783ZM167.511 218.025L12.6287 183.623C12.4835 181.736 12.4835 179.704 12.4835 177.817L12.4835 168.672L167.656 196.978L167.656 218.025L167.511 218.025ZM167.511 188.123L12.3384 159.818L12.3384 146.173L167.511 168.382L167.511 188.123L167.511 188.123ZM167.511 158.221L12.3384 136.012L12.3384 123.528L167.511 139.351L167.511 158.221L167.511 158.221ZM167.511 128.319L12.3384 112.497L12.3384 101.174L167.511 110.755L167.511 128.319L167.511 128.319ZM167.511 98.2711L47.0308 90.8681L167.511 90.8681L167.511 98.2711L167.511 98.2711ZM164.898 57.3369L162.721 52.5468L148.931 52.5468L146.753 57.3369L134.56 57.3369L149.366 29.7571L162.14 29.7571L176.946 57.3369L164.898 57.3369L164.898 57.3369ZM177.817 29.7571L188.559 29.7571L188.559 57.3369L177.817 57.3369L177.817 29.7571L177.817 29.7571ZM268.685 269.846L179.994 299.458L179.994 280.298L311.942 240.67C300.62 253.734 285.959 264.04 268.685 269.846L268.685 269.846ZM317.167 233.847L179.849 274.927L179.849 251.992L328.199 213.235C325.441 220.638 321.667 227.461 317.167 233.847L317.167 233.847ZM330.667 206.268L179.849 245.605L179.849 223.832L334.296 189.575C333.57 195.236 332.409 200.897 330.667 206.268L330.667 206.268ZM335.022 177.817C335.022 179.123 335.022 180.575 334.877 181.881L179.849 216.284L179.849 195.671L335.022 167.366L335.022 177.817L335.022 177.817ZM335.022 158.366L179.849 186.672L179.849 167.075L335.022 144.866L335.022 158.366L335.022 158.366ZM335.022 134.996L179.849 157.205L179.849 138.77L335.022 122.948L335.022 134.996L335.022 134.996ZM335.022 111.626L179.849 127.448L179.849 110.174L335.022 100.594L335.022 111.626L335.022 111.626ZM151.979 45.8695L159.527 45.8695L155.753 37.7407L151.979 45.8695L151.979 45.8695ZM55.8854 43.547C55.8854 40.789 54.2886 38.4665 51.5306 38.4665L39.7729 38.4665L39.7729 48.6275L51.5306 48.6275C54.2886 48.6275 55.8854 46.3049 55.8854 43.547L55.8854 43.547Z" id="logo" fill="#FFFFFF" fill-rule="evenodd" stroke="none" />
</svg>