<?xml version="1.0" encoding="utf-8"?>
<!-- Generator: Adobe Illustrator 26.0.3, SVG Export Plug-In . SVG Version: 6.00 Build 0)  -->
<svg version="1.1" id="Layer_1" xmlns="http://www.w3.org/2000/svg" xmlns:xlink="http://www.w3.org/1999/xlink" x="0px" y="0px"
	 viewBox="0 0 152.6 37.9" style="enable-background:new 0 0 152.6 37.9;" xml:space="preserve">
<style type="text/css">
	.st0{fill:#FFFFFF;}
</style>
<path class="st0" d="M79.9,7.2H63.2v23.7h16.7c3.8-0.1,6.8-3.1,6.9-6.9v-0.6c0-1.7-0.6-3.3-1.8-4.6c1.2-1.3,1.8-3,1.8-4.7
	C86.8,10.3,83.7,7.2,79.9,7.2z M79.1,25.4c-0.4,0.5-1,0.7-1.6,0.7h-7.2v-4.7h7.2c0.6,0,1.2,0.2,1.6,0.7c0.4,0.4,0.7,1,0.7,1.6
	C79.7,24.3,79.5,24.9,79.1,25.4z M79.1,15.9c-0.4,0.5-1,0.7-1.6,0.7h-7.2v-4.7h7.2c1.3,0,2.3,1,2.3,2.3
	C79.7,14.8,79.5,15.5,79.1,15.9z M108.1,7.2h-9.8c-3.8,0.1-6.8,3.1-6.9,6.9v16.8h7.1v-4.7h9.5v4.7h7.1L115,14.1
	C114.9,10.3,111.9,7.3,108.1,7.2z M107.9,21.4h-9.4v-7.2c0-0.6,0.2-1.2,0.7-1.6c0.4-0.4,1-0.7,1.6-0.7h4.8c1.3,0,2.3,1,2.3,2.3V21.4
	z M119.5,30.9h7.1V7.2h-7.1V30.9z M139,12.6c0.4-0.4,1-0.7,1.6-0.7h12V7.2H138c-1.8,0-3.6,0.8-4.8,2.1c-1.3,1.2-2.1,3-2.1,4.8V24
	c0.1,3.8,3.1,6.8,6.9,6.9h14.5l0.1-4.8h-12c-1.3,0-2.3-1.1-2.3-2.3v-9.6C138.3,13.6,138.5,13,139,12.6z M24.5,0.1
	C18.7,0,12.9,1.7,8.1,4.9C3,8.5,0,13.7,0,18.9c0,10.4,11,18.9,24.6,18.9s24.5-8.5,24.5-18.9S38.1,0,24.5,0.1z M11.5,26.7
	c-0.8,0.3-1.7,0.4-2.6,0.4c-1.4,0-2.7-0.4-3.9-1.2c-2.5-4.1-2.7-9.2-0.3-13.3c0.7-1,1.6-1.8,2.6-2.4C8,9.8,8.8,9.6,9.7,9.6
	c1.1,0,2.2,0.3,3.1,0.7l3,1.3c1.5,0.7,2.3,2.4,1.9,4c-0.4,1.5-1.4,4.4-2,6.3C15,24.1,13.5,25.8,11.5,26.7z M34.5,33.7L33.6,34h-0.1
	c-0.3,0.1-0.5,0.2-0.8,0.3h-0.1l-0.8,0.2h-0.1c-0.3,0.1-0.6,0.2-0.8,0.2c-4.2,1-8.6,1-12.8,0c-0.3-0.1-0.5-0.1-0.8-0.2h-0.1
	l-0.8-0.2h-0.1c-0.3-0.1-0.5-0.2-0.8-0.3h-0.1l-0.8-0.3c-0.1-0.1-0.2-0.1-0.4-0.1l0.2-0.1L15,33l1-0.7l0.4-0.3
	c3-2.2,3.9-4.9,4.4-7.6c0.8-3.7,1.3-6.5,1.6-8.7c0.6-3.3-0.8-6.6-3.6-8.4c-1.7-1.2-3.6-2.4-4.4-3c6.5-2.6,13.7-2.6,20.2,0
	c-0.7,0.5-2.7,1.8-4.5,3c-2.8,1.8-4.2,5.1-3.6,8.3c0.3,2.2,0.8,5,1.5,8.7c0.5,2.7,1.5,5.4,4.4,7.6l0.4,0.3l1,0.7l0.7,0.4l0.3,0.2
	C34.7,33.5,34.6,33.6,34.5,33.7z M44.7,13.3c2,4,1.7,8.8-0.7,12.7c-1.1,0.8-2.5,1.2-3.9,1.2c-0.9,0-1.8-0.2-2.6-0.4
	c-2-0.9-3.6-2.6-4.3-4.8c-0.6-1.8-1.6-4.7-2-6.3c-0.5-1.6,0.3-3.3,1.9-4c1.2-0.6,2.5-1.2,3-1.4c1-0.5,2.1-0.7,3.2-0.7
	c0.9,0,1.7,0.2,2.4,0.6c0.8,0.5,1.6,1.1,2.2,1.9c0.1,0.2,0.3,0.3,0.4,0.5C44.4,12.8,44.6,13.1,44.7,13.3z"/>
</svg>
