<?xml version="1.0" encoding="utf-8"?>
<!-- Generator: Adobe Illustrator 26.0.3, SVG Export Plug-In . SVG Version: 6.00 Build 0)  -->
<svg version="1.1" id="Layer_1" xmlns="http://www.w3.org/2000/svg" xmlns:xlink="http://www.w3.org/1999/xlink" x="0px" y="0px"
	 viewBox="0 0 156.6 106.5" style="enable-background:new 0 0 156.6 106.5;" xml:space="preserve">
<style type="text/css">
	.st0{fill:#FFFFFF;}
</style>
<path class="st0" d="M16.8,97c-0.4-0.2-0.8-0.4-1.3-0.5c-0.3-0.1-0.6-0.1-0.9-0.1c0.3,0,0.5-0.1,0.7-0.2c0.6-0.2,1.4-0.6,2-1.5
	c0.5-0.9,0.6-1.7,0.6-2.3c0-0.6,0-2.7-2.2-3.8c-1.1-0.5-2.5-0.5-5.9-0.5h-6H0l1.8,2.2V106h8.7c2.8,0,4.6-0.1,5.9-0.8
	c0.8-0.4,1.4-1.1,1.8-1.9s0.5-1.6,0.5-2.4C18.7,100.2,18.7,98.2,16.8,97z M8.1,91h0.8c1.2,0,2.5,0,3,1.1c0.1,0.3,0.2,0.6,0.2,1.1
	c0,1.1-0.5,1.7-0.8,1.9c-0.5,0.4-1.6,0.4-2.2,0.4h-1V91z M11.6,102.9c-0.6,0.5-1.8,0.5-2.4,0.5H8.1v-5.2H9c0.6,0,1.8,0,2.5,0.4
	c0.9,0.6,0.9,1.8,0.9,2.1C12.4,101.8,12.1,102.5,11.6,102.9z M36.9,101.8c-0.2-1.2-0.6-2.9-1.6-3.8c-0.9-0.8-1.8-0.9-2.6-1
	c1.4-0.2,4.2-0.7,4.2-4.5c0-2.6-1.4-4.1-4.3-4.3c-0.7-0.1-1.4-0.1-2.2-0.1h-10v18h6.4v-7.3h0.8c0.7,0.1,1.8,0.1,2.3,1
	c0.2,0.5,0.3,0.8,0.6,2.4l0.1,0.7c0.2,1.1,0.3,1.8,0.4,2c0.2,0.7,0.4,0.9,0.8,1.2h6.4c-0.6-0.6-0.7-0.9-1.1-3.3L36.9,101.8z
	 M27.7,95.8h-0.9V91h1c1.1,0,3.1,0,3.1,2.4C30.9,95.8,28.9,95.7,27.7,95.8z M39.8,106.1h6.8v-18h-6.8V106.1z M56.5,88.1h-6.8v18H61
	v-3.8h-4.5V88.1z M69.4,88.1h-6.8v18h11.3v-3.8h-4.5V88.1z M75.5,106.1h6.8v-18h-6.8V106.1z M88.4,88.1l-4.8,18H90l2.8-13.2h1.1
	l2.3,13.2h6.5l-4.3-18H88.4z M115.6,96c0,0.7,0,2,0,2.7c-0.4-1.5-1-2.3-1.5-3.6l-2.9-7h-7.4v18h5.7l-0.2-8c0-1.1,0-2,0-2.6
	c0.4,1.2,1.1,2.1,1.5,3.3l3,7.3h7.2l0.1-18h-5.6L115.6,96z M148.7,98.6h6.1v-3.7h-6.1v-3l6.3-0.1l1.6-3.7h-14.1v18h14.1v-3.8h-7.9
	L148.7,98.6L148.7,98.6z M141.1,94.9c-0.1-3.9-3.6-7.3-7.7-7.3h-2.6c-4.1,0-7.7,3.2-7.7,7.2l-0.1,4.4c0,4,3.6,7.2,7.7,7.2h2.6
	c4.1,0,7.6-3.2,7.7-7.1h-6.5v1.2c0,1.2-1,2.2-2.2,2.2c-1.2-0.1-2.2-1-2.2-2.2V94c0-1.2,1-2.2,2.2-2.2h0.1c1.2,0.1,2.2,1,2.2,2.2v0.9
	H141.1z"/>
<path class="st0" d="M78.4,0.1c-23,0-41.7,16.7-41.7,37.2s18.7,37.2,41.7,37.2S120,57.8,120,37.3S101.4,0.1,78.4,0.1z M81.2,30.2
	c0-1.2,0.2-2,0.7-2.6c0.4-0.4,0.9-0.6,1.5-0.6h9.8c2,0,3,1.1,3,3.4c0,2.9-0.2,5.5-1.3,8.8c-1,2.8-2.6,6.5-5,8.2c-2.6,2-5.9,2-7,2
	c-0.7,0-1.7-0.2-1.7-2.3V30.2z M99.9,16.8l-0.1,0.1c-0.1,0.1-0.2,0.3-0.4,0.6c-0.2,0.3-0.4,0.6-0.6,0.8c-0.5,0.5-1.8,0.5-3.4,0.5
	H84.3c-2.2,0-3.2-0.7-3.2-2.3V10c0-1.9,1.5-3.3,2.9-3.3c1.5,0,6.4,1.4,9.8,3.2c2.9,1.6,6.6,4.4,7.5,5.2
	C100.5,15.7,100.2,16.4,99.9,16.8z M85.7,56c1.1-0.4,2.1-0.8,3-1.1c2.8-1,4.5-1.6,6.3-3.1c1.9-1.6,5.5-4.7,7.1-13.9
	c0.9-5.2,2.4-12.1,4.7-12.1c0,0,0,0,0.1,0c0.4,0,0.9,0.2,1.3,0.7c1.8,2.1,2.7,8.3,2.4,12.5c-0.6,7.2-4.5,16-9,20.7
	c-6.1,6.1-12,8.3-15.1,8.3c-2.4,0-5.2-2.3-5.2-5.4v-0.1c-0.2-0.7-0.2-1.8-0.2-1.8C80.9,58,80.9,57.8,85.7,56z M73.7,49.5
	c-1.1,0-4.4,0-7-2c-2.4-1.7-4-5.4-5-8.2c-1.1-3.3-1.3-5.9-1.3-8.8c0-2.3,0.9-3.4,3-3.4h9.8c0.6,0,1.1,0.2,1.5,0.6
	c0.5,0.5,0.7,1.4,0.7,2.6v16.9C75.4,49.2,74.4,49.5,73.7,49.5z M75.5,16.6c0,1.6-1,2.3-3.3,2.3H61.1c-3,0-3.2-0.3-3.7-1l-0.1-0.2
	c-0.1-0.1-0.2-0.2-0.2-0.4c-0.3-0.5-0.8-1.2-1.4-1.7c-0.3-0.3-0.5-0.4-0.7-0.6c1-0.8,5-3.7,7.8-5.2c3.4-1.8,8.3-3.2,9.8-3.2
	c1.4,0,2.9,1.3,2.9,3.3V16.6z M67.8,54.8c0.9,0.3,1.9,0.7,3,1.1c4.7,1.8,4.7,2,4.7,4.8c0,0-0.1,1.2-0.2,1.9l0,0
	c0,3.1-2.7,5.4-5.2,5.4c-3.1,0-9-2.2-15.1-8.3C50.6,55,46.7,46.1,46,39c-0.3-4.3,0.6-10.5,2.4-12.5c0.4-0.4,0.8-0.7,1.3-0.7
	c0,0,0,0,0.1,0c2.3,0,3.8,6.9,4.7,12.1c1.5,9.2,5.1,12.3,7.1,13.9C63.3,53.3,65,53.9,67.8,54.8z"/>
</svg>
