<?xml version="1.0" encoding="utf-8"?>
<!-- Generator: Adobe Illustrator 26.0.3, SVG Export Plug-In . SVG Version: 6.00 Build 0)  -->
<svg version="1.1" id="svg3121" xmlns:svg="http://www.w3.org/2000/svg"
	 xmlns="http://www.w3.org/2000/svg" xmlns:xlink="http://www.w3.org/1999/xlink" x="0px" y="0px" viewBox="0 0 531 328.6"
	 style="enable-background:new 0 0 531 328.6;" xml:space="preserve">
<style type="text/css">
	.st0{fill-rule:evenodd;clip-rule:evenodd;fill:#FFFFFF;}
</style>
<g id="layer1" transform="translate(-163.0558,-288.07832)">
	<path id="path84" class="st0" d="M428.8,289.1c-146,0-264.7,73.1-264.7,163.5c0,89.7,118.7,163.1,264.7,163.1
		c146.8,0,264.3-73.4,264.3-163.1C693.1,362.2,575.6,289.1,428.8,289.1z M428.8,320.4c136.5,0,246.9,58.7,246.9,132.2
		c0,72.8-110.4,131.7-246.9,131.7c-135.6,0-246.1-58.9-246.1-131.7C182.7,379.1,293.2,320.4,428.8,320.4L428.8,320.4z M239.5,391.6
		v121.6h31.3v-51.3h52.9v21.6h-46.2v29.6h59.3l17.8-12.3v-40.7l-8-7.6l8-7.2v-34.7l-16.1-19.1L239.5,391.6L239.5,391.6z
		 M367.4,391.6v59.7l13.1,12.7l29.2-0.4v-28.8l-5.5-5.1v-38.1L367.4,391.6L367.4,391.6z M457.2,391.6v38.1l-5.5,5.1h-35.2v78.4h36.4
		v-49.6l27.5,0.4l13.1-12.3v-60.1H457.2L457.2,391.6z M506.3,391.6v121.6h33v-91.1h36l9.7,11v50h-39v30.1h71.6v-100l-18.2-21.6
		H506.3L506.3,391.6z M270.8,421.2h52.5v21.6h-52.5V421.2z"/>
</g>
</svg>
