<?xml version="1.0" encoding="utf-8"?>
<!-- Generator: Adobe Illustrator 26.0.3, SVG Export Plug-In . SVG Version: 6.00 Build 0)  -->
<svg version="1.1" id="Layer_1" xmlns="http://www.w3.org/2000/svg" xmlns:xlink="http://www.w3.org/1999/xlink" x="0px" y="0px"
	 viewBox="0 0 845.4 677.7" style="enable-background:new 0 0 845.4 677.7;" xml:space="preserve">
<style type="text/css">
	.st0{fill:#FFFFFF;}
	.st1{fill-rule:evenodd;clip-rule:evenodd;fill:#FFFFFF;}
</style>
<g>
	<path class="st0" d="M606.2,75.6c-38.7-24-91.6-38.9-149.8-38.9c-118.3,0-214.8,61.4-214.8,136.7s96.5,136.7,214.8,136.7
		c37.6,0,72.9-6.2,103.7-17.1l-11.4,53.9c-37.7,11.2-79.8,17.6-124.2,17.6c-160,0-290.5-81.9-290.5-182.3S264.5,0,424.5,0
		C496.3,0,562.2,16.5,613,43.8L606.2,75.6z M575.6,337.3l26.3-127.8H414.3L391,294.3c-40.5-8.7-75.2-25.5-99.5-47.2l48.9-178.2
		c32.6-14.5,72.1-23.1,114.8-23.1c1.3,0,2.6,0,4,0l-26.1,95.1h183l17.3-84.2c49.7,32.7,80.3,77,80.3,125.6
		C713.7,247.6,658.4,305.2,575.6,337.3z"/>
	<path class="st1" d="M108.9,599.5l-15.8-16.6H15L0,597.8v64.8l15,15h78.1l15.8-15.8l-10.8-11.6l-10.8,11.6H48.2l-7.5-7.5v-48.2
		l6.6-7.5h39.1L98,610.2L108.9,599.5z M229.3,583v94.7h-17.4v-39.9h-47.4v39.9H123V583h41.5v39.8h47.4V583H229.3z M324.9,646.9
		h-30.7l14.1-39.1L324.9,646.9z M356.5,677.6l-39.1-94.7h-40.7L241,677.6h40.7l6.6-15.8h42.4l6.6,15.8H356.5z M471.1,583v94.7h-17.4
		l-47.4-67.4v67.3h-41.5v-94.7h41.5l47.4,69.8v-69.8h17.4L471.1,583L471.1,583z M601.6,599.5L585,582.9h-77.3l-15,14.9v64l14.1,15.8
		h79l16.6-16.6v-38.2h-48.2v15h30.7v19.1l-5.8,5h-38.2l-6.6-6.6v-50.7l6.6-5.8h38.2l11.7,11.5L601.6,599.5z M721.2,583v94.7h-16.6
		v-39.9h-47.4v39.9h-41.5V583h41.5v39.8h47.4V583H721.2z M743.7,583v94.7h99.7v-15.8h-59v-24.1h51.5v-15h-51.5v-24.1h59v-15.8
		L743.7,583L743.7,583z"/>
	<path class="st0" d="M117.7,460.6l9.9,22.8h40.7l6.7-22.8H117.7z M87.7,460.6H47.1l-6.9,22.8h57.4L87.7,460.6z M185.6,494.2h-67.7
		h-15.5H16.7l12.6-43.6h54.8h29.2h85.2L185.6,494.2z M102.6,510.6l10.3,23.6h40.7l6.9-23.6H102.6z M72.6,510.6H32.1L25,534.2h57.9
		L72.6,510.6z M170.7,544.1h-58.2H87.2h-85l12.4-42.8h62.5h21.4h84.9L170.7,544.1z M225.7,552l20.7-23.6l12.9,12.1l-23.6,26.4h-52.1
		L220,446.3l-16.4-30.7h27.1l15.7,30.7L215,552H225.7z M273.5,490.6l-4.3,15.7h61.4l4.3-15.7H273.5z M352,523.4H237l15-50h115
		L352,523.4z M400.6,465.6l-23.6,80h-89.2l-15-13.6h85l20-66.4H265.6l4.3-15.7H457l-5,15.7H400.6z M474.1,540.6H432l3.6-12.9h12.9
		l12.9-44.3h30L474.1,540.6z M465.6,472l5.7-22.1h29.3l-5.7,22.1H465.6z M632,484.2H506.4l3.4-12.1h125.7L632,484.2z M638.4,462
		H512.7l5.7-20h30l-2.1,7.9H642L638.4,462z M584.8,540.6l11.4-35.7h-95.7l3.4-12.1h125.6L619,529.2h30l-2.1,11.4L584.8,540.6
		L584.8,540.6z M845.4,449.9l-3.6,11.4H727.6l-15.7,27.8H749l4.3-15h30l-4.3,15h55l-4.3,13.6h-55l-3.6,13.6h56.4l-3.6,12.1h-57.1
		l-4.3,17.1h-30.7l5.7-17.1h-85.7l3-12.1h86.4l3.6-12.9h-73.5l22.8-42.1h-30l2.9-11.4h33.6l5-8.6h33.6l-5,8.6L845.4,449.9
		L845.4,449.9z"/>
</g>
</svg>
