<?xml version="1.0" encoding="utf-8"?>
<!-- Generator: Adobe Illustrator 26.0.3, SVG Export Plug-In . SVG Version: 6.00 Build 0)  -->
<svg version="1.1" id="Слой_1" xmlns="http://www.w3.org/2000/svg" xmlns:xlink="http://www.w3.org/1999/xlink" x="0px" y="0px"
	 viewBox="0 0 100 60" style="enable-background:new 0 0 100 60;" xml:space="preserve">
<style type="text/css">
	.st0{fill:#FFFFFF;}
</style>
<path class="st0" d="M50,40.2c13.7,0,19.1-3.5,20.7-16.4C72.4,8.6,66.7,3.7,50,3.7c-16.9,0-22.5,4.9-20.7,20.1
	C30.8,36.8,36.3,40.2,50,40.2z M50,5c14.7,0,19.6,4.6,18.1,18.8C66.7,35.8,62,39,50,39c-12-0.1-16.8-3.3-18.1-15.3
	C30.3,9.5,35.3,5,50,5z M50,36.6c7.8,0,13.8-2.1,15.2-12.9C66.9,10.3,59.9,7.3,50,7.3c-10,0-17,3-15.3,16.4
	C36.1,34.5,42.2,36.6,50,36.6z M57.9,10.1c3.8,1.6,6.5,5.1,5.6,13.4C62.3,33.6,56.6,35,51.1,35.1c1.3-2,3.7-6.7,5.7-10.4
	c0.6-1,1.3-2.6,1.3-5.2S58,12.3,57.9,10.1z M50,9.1c2,0,4,0.1,5.9,0.5l-5.4,14L45,9.4C46.6,9.2,48.3,9.1,50,9.1z M42.9,9.9
	c-0.1,2.1-0.2,6.9-0.2,9.7c0,2.6,0.8,4.2,1.3,5.2c2,3.6,4.4,8.5,5.7,10.4c-5.7-0.1-12-1.1-13.3-11.7C35.5,14.7,38.6,11.2,42.9,9.9z
	 M64.1,52.9l2,3h1.8L67.3,57h-3.2c-1.6,0-3-1.3-3-3s1.3-3,3-3h7.6l1.5-3H64c-3.2,0-5.8,2.6-5.8,5.8v0.3c0,3.2,2.6,5.8,5.8,5.8h3.4
	l3.4-7.1h-6.7V52.9z M53.9,54.6l-6.1-6.7h-3V60h3v-6.5l6.1,6.5h3V47.9h-3V54.6z M7,51h4.1l1.7-3h-7C2.6,48,0,50.6,0,53.8v0.3
	C0,57.4,2.6,60,5.8,60h7.1l-1.7-3H7c-1.6,0-3-1.3-3-3S5.4,51,7,51z M97,47.9v6.7l-6.1-6.7h-3V60h3v-6.5L97,60h3V47.9H97z M76.4,48
	l-5.7,12h3.5l4.2-9.2L81,57h-3.2l2,3h6.7l-6.1-12H76.4z M33.3,48l-5.7,12h3.5l4.2-9.2L38,57h-3.2l2,3h6.7l-6.1-12H33.3z M22.7,52.5
	h-5V48h-3.5v12h3.5v-4.5h5V60h3.5V48h-3.5V52.5z"/>
</svg>
