<?xml version="1.0" encoding="utf-8"?>
<!-- Generator: Adobe Illustrator 26.0.3, SVG Export Plug-In . SVG Version: 6.00 Build 0)  -->
<svg version="1.1" id="Layer_1" xmlns="http://www.w3.org/2000/svg" xmlns:xlink="http://www.w3.org/1999/xlink" x="0px" y="0px"
	 viewBox="0 0 738.3 398.5" style="enable-background:new 0 0 738.3 398.5;" xml:space="preserve">
<style type="text/css">
	.st0{fill:#FFFFFF;}
</style>
<g>
	<g>
		<path class="st0" d="M369.1,0C180,0,0,54.6,0,122s165.3,122,369.1,122s369.2-54.6,369.2-122C738.3,53.3,552.7,0,369.1,0z
			 M97.5,106.1c0-34.4,105.1-70.8,214.9-80.9c-24.9,20.9-100,83.6-117,96.8c-19.1,14.8-38.1,25.4-54.2,20.7
			c-1.2-0.4-2.4-0.8-3.5-1.3c-0.5-0.2-0.9-0.4-1.3-0.5C111.7,131.5,97.5,119.9,97.5,106.1z M293,166.6c-4.9-0.9-11.5-3.5-15.5-10.7
			c-7.2-12.8-14.9-13.8,0.5-26.7c0,0,74.1-64.3,91.8-64.3s91.8,64.3,91.8,64.3c15.4,12.8,7.7,13.8,0.5,26.7
			c-4.1,7.3-10.6,9.9-15.5,10.7c-24.4,1.4-50.1,2.1-76.8,2.1C343,168.6,317.3,167.9,293,166.6z M598.1,142.7
			c-16.1,4.6-35-5.9-54-20.7c-17.1-13.3-92.7-76.4-117.3-97C541.1,34.7,642,71.5,642,106.1C641.9,120.8,625.8,133,598.1,142.7z"/>
		<g>
			<g>
				<path class="st0" d="M22.6,323.3h106.5v-22.2H19c-10.5,0-19,8.5-19,19v59.4c0,10.5,8.5,19,19,19h110.1v-22.3H22.6V323.3z"/>
			</g>
			<path class="st0" d="M424.8,323.3v-22.2H314.7c-10.5,0-19,8.5-19,19v59.4c0,10.5,8.5,19,19,19h110.1v-22.3H318.3v-15.4h97.3
				v-22.2h-97.3v-15.4h106.5V323.3z"/>
			<path class="st0" d="M575.4,338.7v-18.6c0-10.5-8.5-19-19-19H443.2V331v26.7v40.8h22.6v-40.8v-15.8l20,15.8l51.6,40.8h37.9
				l-51.6-40.8h32.7C566.9,357.7,575.4,349.2,575.4,338.7z M555.6,338.7h-55.9h-33.9V331v-7.7h89.8V338.7L555.6,338.7z"/>
			<polygon class="st0" points="705.6,301.1 658.1,346.2 610.6,301.1 577.9,301.1 641.8,361.7 646.8,366.4 646.8,398.4 669.4,398.4 
				669.4,366.4 674.4,361.7 738.3,301.1 			"/>
			<polygon class="st0" points="254.7,301.1 254.7,338.5 170.1,338.5 170.1,301.1 147.5,301.1 147.5,398.4 170.1,398.4 170.1,361.1 
				254.7,361.1 254.7,398.4 277.3,398.4 277.3,301.1 			"/>
		</g>
	</g>
</g>
</svg>
