<?xml version="1.0" encoding="utf-8"?>
<!-- Generator: Adobe Illustrator 26.0.3, SVG Export Plug-In . SVG Version: 6.00 Build 0)  -->
<svg version="1.1" id="Слой_1" xmlns="http://www.w3.org/2000/svg" xmlns:xlink="http://www.w3.org/1999/xlink" x="0px" y="0px"
	 viewBox="0 0 58.9 60" style="enable-background:new 0 0 58.9 60;" xml:space="preserve">
<style type="text/css">
	.st0{fill:#FFFFFF;}
</style>
<g>
	<path class="st0" d="M29.4,0C18.5,0,9.7,8.8,9.7,19.7s8.8,19.7,19.7,19.7s19.7-8.8,19.7-19.7C48.9,8.8,40.1,0,29.4,0z M29.5,3
		c6.7,0,12.5,3.9,15.2,9.7c-0.6,1.7-1.9,4.8-4.8,7C40,9.8,31.8,4.6,24.2,3.9C25.9,3.3,27.6,3,29.5,3z M12.9,19.7
		c0-7.1,4.5-13.2,10.9-15.7c1.4,0.6,3.6,1.7,5.7,3.6c-14.1,1.6-15.8,11.9-15.8,17C13,23,12.9,21.4,12.9,19.7z M29.5,36.4
		c-7,0-12.9-4.2-15.4-10.1c0.6-1.7,2-4.6,4.9-6.8c-0.3,10,8.1,15.5,15.8,16.1C33.1,36.1,31.4,36.4,29.5,36.4z M35.3,35.4
		c-4.9-1.6-17.8-12-6.1-27.7c4.8,4.5,8.6,12.9,0.6,23.8C44,29.6,45.5,19,45.3,14.1c0.6,1.7,1,3.6,1,5.7C46.2,27,41.7,33,35.3,35.4z"
		/>
	<path class="st0" d="M0,44.8V49h12.2c0,0,1.7-0.3,1.9,1.4c0.1,1.6,0,3.8,0,4.6c0,0.9-0.9,1-0.9,1H6v-5.7H0.2v9.4h15.1
		c1.7,0,3.6-1.2,3.6-3.5v-7.5c0-2.2-2.5-3.9-3.6-3.9C14,44.8,0.1,44.8,0,44.8z M21.6,49c0,0.1,16.4,0,16.4,0v-4.1H25
		C24.9,44.8,22.6,45.8,21.6,49z M21.6,50v10h5.5c0,0-0.1-5.5,0-5.5h11v-4.3C37.9,50,21.6,50,21.6,50z M40.2,44.8l9.1,11l4.2-3.8v7.8
		h5.4v-15h-4.3l-4.5,5.4l-4.6-5.4H40.2z"/>
	<path class="st0" d="M40.9,39.8l2.8,3.1l2.7-3.1H40.9z"/>
</g>
</svg>
