<?xml version="1.0" encoding="utf-8"?>
<!-- Generator: Adobe Illustrator 26.0.3, SVG Export Plug-In . SVG Version: 6.00 Build 0)  -->
<svg version="1.1" id="Layer_1" xmlns="http://www.w3.org/2000/svg" xmlns:xlink="http://www.w3.org/1999/xlink" x="0px" y="0px"
	 viewBox="0 0 118 24" style="enable-background:new 0 0 118 24;" xml:space="preserve">
<style type="text/css">
	.st0{fill-rule:evenodd;clip-rule:evenodd;fill:#FFFFFF;fill-opacity:0;}
	.st1{fill-rule:evenodd;clip-rule:evenodd;fill:#FFFFFF;}
	.st2{fill:#FFFFFF;}
</style>
<g id="exceed">
	<path id="Фон" class="st0" d="M0,0h118v24H0V0z"/>
	<path id="Фигура" class="st1" d="M98.7,13.2V0.1h16.5c1.5,0,2.8,1.3,2.8,2.8v7.5c0,1.5-1.3,2.8-2.8,2.8H98.7L98.7,13.2z
		 M113.4,2.4h-11.5v8.4h11.5c0.8,0,1.4-0.6,1.4-1.4V3.8c0-0.4-0.1-0.7-0.4-1C114.1,2.6,113.7,2.4,113.4,2.4L113.4,2.4z"/>
	<path id="Фигура_00000092455320476028918550000007139096520191525789_" class="st2" d="M2.8,0.1C1.3,0.1,0,1.3,0,2.9v7.5
		c0,1.5,1.2,2.8,2.8,2.8h16.4v-2.4H4.6c-0.4,0-0.7-0.1-1-0.4c-0.3-0.3-0.4-0.6-0.4-1V7.7H18V5.3H3.2V3.8c0-0.8,0.6-1.4,1.4-1.4h14.6
		V0.1H2.8L2.8,0.1z"/>
	<path id="Фигура_00000146482974262589240770000017902656171562449809_" class="st2" d="M34.3,5l-6.1-4.8H24l8.2,6.4L24,13
		h4.2l6.1-4.8l6.1,4.8h4.2l-8.2-6.4l8.2-6.4h-4.2L34.3,5L34.3,5z"/>
	<path id="Фигура_00000098183452218644304500000011891916693843686016_" class="st2" d="M49.4,2.9c0-1.5,1.2-2.8,2.8-2.8h16.4
		v2.4H54c-0.8,0-1.4,0.6-1.4,1.4v1.5h14.8v2.4H52.6v1.7c0,0.8,0.6,1.4,1.4,1.4h14.6v2.4H52.2c-1.5,0-2.8-1.2-2.8-2.8V2.9L49.4,2.9z"
		/>
	<path id="Фигура_00000100368607496204195100000011318090949792451968_" class="st2" d="M76.8,0.1c-1.5,0-2.8,1.2-2.8,2.8v7.5
		c0,1.5,1.2,2.8,2.8,2.8h16.4v-2.4H78.6c-0.8,0-1.4-0.6-1.4-1.4V7.7H92V5.3H77.2V3.9c0-0.8,0.6-1.4,1.4-1.4h14.6V0.1H76.8L76.8,0.1z
		"/>
	<path id="Фигура_00000008837787918926194720000000893163436191818139_" class="st1" d="M6.8,23c0,0.7-0.3,1-1.1,1H0v-4.6h5.6
		c0.7,0,1.1,0.3,1.1,1v0.3c0,0.5-0.2,0.7-0.5,0.9c0.4,0.1,0.6,0.4,0.6,0.9L6.8,23L6.8,23z M5.1,20.8c0-0.3-0.1-0.4-0.3-0.4H1.6v1
		h3.2c0.2,0,0.3-0.1,0.3-0.4L5.1,20.8L5.1,20.8z M5.2,22.4c0-0.3-0.1-0.3-0.3-0.3H1.6v1H5c0.2,0,0.3-0.1,0.3-0.3v-0.4H5.2z"/>
	<path id="Фигура_00000060020335011160198560000014928091449527926927_" class="st1" d="M9.3,19.4c-0.9,0-1.4,0.4-1.4,1.3v2
		C8,23.6,8.4,24,9.3,24h4.3c0.9,0,1.4-0.4,1.4-1.3v-2c0-0.9-0.4-1.3-1.4-1.3L9.3,19.4L9.3,19.4z M10,22.8c-0.3,0-0.4-0.1-0.4-0.4V21
		c0-0.3,0.1-0.4,0.4-0.4h3c0.3,0,0.4,0.1,0.4,0.4v1.4c0,0.3-0.1,0.4-0.4,0.4H10L10,22.8z"/>
	<path id="Фигура_00000121967621742158163300000002966952012850840209_" class="st1" d="M23,20.6c0-0.8-0.4-1.2-1.2-1.2h-5.5
		V24h1.6v-1.5H20l1.3,1.5h1.9l-1.4-1.6c0.9,0,1.2-0.4,1.2-1.2V20.6L23,20.6z M21.5,21.1c0,0.3-0.1,0.4-0.4,0.4h-3.2v-1.1h3.2
		c0.3,0,0.4,0.1,0.4,0.4V21.1L21.5,21.1z"/>
	<path id="Фигура_00000113349975427262874820000017220277759857092007_" class="st2" d="M25.8,21l4.2,3h1.3v-4.6h-1.5v2.9
		l-4.1-2.9h-1.3V24h1.5v-3H25.8z"/>
	<path id="Фигура_00000097467498889855323730000017016519351090349453_" class="st2" d="M35.3,19.4h6.1v1.2h-4.6v0.8h4.3v1.1
		h-4.3V24h-1.6L35.3,19.4L35.3,19.4z"/>
	<path id="Фигура_00000029022357842935097110000004185856345711563189_" class="st1" d="M42.5,20.7c0-0.9,0.4-1.3,1.4-1.3h4.3
		c0.9,0,1.4,0.4,1.4,1.3v2c0,0.9-0.4,1.3-1.4,1.3h-4.3c-0.9,0-1.4-0.4-1.4-1.3V20.7L42.5,20.7z M44,22.4c0,0.3,0.1,0.4,0.4,0.4h3.1
		c0.3,0,0.4-0.1,0.4-0.4V21c0-0.3-0.1-0.4-0.4-0.4h-3.1c-0.3,0-0.4,0.1-0.4,0.4V22.4L44,22.4z"/>
	<path id="Фигура_00000101083576535607114510000017226828283513514881_" class="st1" d="M56.3,19.4c0.9,0,1.2,0.4,1.2,1.2v0.6
		c0,0.8-0.4,1.2-1.2,1.2l1.4,1.6h-1.9l-1.3-1.5h-2.2V24h-1.6v-4.6H56.3L56.3,19.4z M55.6,21.5c0.3,0,0.4-0.1,0.4-0.4v-0.4
		c0-0.3-0.1-0.4-0.4-0.4h-3.2v1.1L55.6,21.5L55.6,21.5z"/>
	<path id="Фигура_00000152242557359795198500000003575409971934682764_" class="st2" d="M65.4,22l2.5-2.6h1.3V24h-1.5v-2.7
		l-2,2h-0.9l-2-2V24h-1.5v-4.6h1.4L65.4,22L65.4,22z"/>
	<path id="Фигура_00000062873683660254987420000006850267913231145885_" class="st1" d="M70.5,20.7c0-0.9,0.4-1.3,1.4-1.3h4.3
		c0.9,0,1.4,0.4,1.4,1.3v2c0,0.9-0.4,1.3-1.4,1.3h-4.3c-0.9,0-1.4-0.4-1.4-1.3V20.7L70.5,20.7z M72.1,22.4c0,0.3,0.1,0.4,0.4,0.4
		h3.1c0.3,0,0.4-0.1,0.4-0.4V21c0-0.3-0.1-0.4-0.4-0.4h-3.1c-0.3,0-0.4,0.1-0.4,0.4V22.4L72.1,22.4z"/>
	<path id="Фигура_00000103248582526887817850000016261045550215912583_" class="st1" d="M84.3,19.4c0.9,0,1.2,0.4,1.2,1.2v0.6
		c0,0.8-0.4,1.2-1.2,1.2l1.4,1.6h-1.9l-1.3-1.5h-2.2V24h-1.6v-4.6H84.3L84.3,19.4z M83.6,21.5c0.3,0,0.4-0.1,0.4-0.4v-0.4
		c0-0.3-0.1-0.4-0.4-0.4h-3.2v1.1L83.6,21.5L83.6,21.5z"/>
	<path id="Фигура_00000046311768492268401340000017595166313590359697_" class="st2" d="M93,19.4h-6.2V24h6.3v-1.1h-4.7v-0.8
		h4.4v-1h-4.4v-0.7H93V19.4L93,19.4z"/>
</g>
</svg>
