<?xml version="1.0" encoding="utf-8"?>
<!-- Generator: Adobe Illustrator 26.0.3, SVG Export Plug-In . SVG Version: 6.00 Build 0)  -->
<svg version="1.1" id="Слой_1" xmlns="http://www.w3.org/2000/svg" xmlns:xlink="http://www.w3.org/1999/xlink" x="0px" y="0px"
	 viewBox="0 0 100 60" style="enable-background:new 0 0 100 60;" xml:space="preserve">
<style type="text/css">
	.st0{fill:#FFFFFF;}
</style>
<path class="st0" d="M61.1,29.4h5.3c1.2-0.2,1.2-0.9,1.2-0.9l1.5-3.1h-8l-2.4-1.8L55,23.8v3.8h3.7L61.1,29.4z M28.1,16.3h17V12H25.5
	l1.4,3.6C27.5,16.4,28.1,16.3,28.1,16.3z M69.4,22c0.8,0,1.3-0.7,1.3-0.7l1.6-3.3L55,17.9V22H69.4z M73.1,15.6l1.4-3.3l-15.4-0.1
	v-0.7h-4v5l16.5-0.1C73,16.2,73.1,15.6,73.1,15.6z M44.9,17.8H27.7l1.4,3.6c0.6,0.9,1.1,0.8,1.1,0.8h14.7V17.8z M44.9,23.7l-3.7,1.7
	H30.9l1.5,3.2c0,0,0.5,0.9,1.5,0.8h7.3l3.7-1.7V23.7z M55.2,30.2l-1.3-0.1c-1.2-0.2-1.1-1.4-1.1-1.4V5.4h-3.2L45,7.5v2.3
	c2.1-1.1,2.1,0.7,2.1,0.7l0.1,18.4c0,1.2-1,1.2-1,1.2h-1.4V32h10.5L55.2,30.2z M80.2,18.5C80.2,8.3,66.7,0,50,0S19.8,8.3,19.8,18.5
	S33.3,37,50,37S80.2,28.7,80.2,18.5z M22.6,18.5c0-9,12.3-16.4,27.4-16.4s27.4,7.3,27.4,16.4c0,9-12.3,16.4-27.4,16.4
	S22.6,27.5,22.6,18.5z M44.3,43.8l-7,16.2h3.9l1.6-3.8h7.8l1.5,3.8l4.2-0.1l-7-16.1C49.3,43.8,44.3,43.8,44.3,43.8z M44.2,53.4
	l2.6-6.1l2.7,6.1H44.2z M38.7,50L29,49.9v-2.8L39.9,47l1.4-3.2H25.1V60l3.9-0.1V53h8.5L38.7,50z M68.9,54l-2.5-10.2h-3.6L60.3,54
	L56,43.7h-3.9l7.1,16.2h3.5l1.8-8.4l2,8.4l3.5-0.1l6.9-16l-4-0.1L68.9,54z"/>
</svg>
