<?xml version="1.0" encoding="utf-8"?>
<!-- Generator: Adobe Illustrator 26.0.3, SVG Export Plug-In . SVG Version: 6.00 Build 0)  -->
<svg version="1.1" id="Layer_1" xmlns="http://www.w3.org/2000/svg" xmlns:xlink="http://www.w3.org/1999/xlink" x="0px" y="0px"
	 viewBox="0 0 512 148.3" style="enable-background:new 0 0 512 148.3;" xml:space="preserve">
<style type="text/css">
	.st0{fill:#FFFFFF;}
</style>
<g id="XMLID_1_">
	<g id="XMLID_2546_">
		<g id="XMLID_2547_">
			<path id="XMLID_2548_" class="st0" d="M390.1,61.1c-2.6,2.6-3.6,5.9-3.6,10.9v14.9c0,5,1,8.4,3.6,10.9c2.6,2.6,6.1,3.7,10.9,3.7
				h30h0.1c4.8,0,8.3-1.1,10.8-3.7c2.6-2.6,3.6-6,3.6-10.9V72c0-5-1-8.4-3.6-10.9c-2.6-2.6-6.1-3.7-10.8-3.7H431h-30h-0.1
				C396.2,57.4,392.7,58.5,390.1,61.1 M399.5,85.9V72.8c0.1-1.9,1-2.9,3-3h27c1.9,0.1,2.9,1.1,3,3v13.6c-0.1,1.9-1.1,2.9-3,3h-27
				C400.6,89.2,399.6,87.8,399.5,85.9"/>
		</g>
		<g id="XMLID_2551_">
			<path id="XMLID_2552_" class="st0" d="M292.1,57.4h-30c-4.8,0-8.4,1.1-10.9,3.7c-2.6,2.6-3.6,5.9-3.6,10.9v14.9
				c0,5,1,8.4,3.6,10.9c2.6,2.6,6.1,3.7,10.9,3.7h30h0.1c4.8,0,8.3-1.1,10.8-3.7c2.6-2.6,3.6-6,3.6-10.9V72c0-5-1-8.4-3.6-10.9
				C300.6,58.5,297.1,57.4,292.1,57.4L292.1,57.4z M260.7,85.6V72.7c0.1-1.9,1.1-2.9,3-3h26.9c1.9,0.1,2.9,1.1,3,3v13.6
				c-0.1,1.9-1.1,2.9-3,3h-27C261.7,89.2,260.7,87.5,260.7,85.6"/>
			<path id="XMLID_2555_" class="st0" d="M199.1,57.2L199.1,57.2h-3.6c-0.3,0-0.7,0-1,0h-0.8H193c-3.7,0.3-6.6,1.2-8.9,3.6
				c-2.6,2.6-3.6,5.9-3.6,10.9v29.6h13.1V89h31.1V77.2h-31v-5.4c0-0.6,0.1-1.2,0.3-1.7c0.3-0.3,0.4-0.6,1.4-0.7h0.4H235V57.1
				L199.1,57.2z"/>
		</g>
		<polygon id="XMLID_2556_" class="st0" points="316.6,57.4 316.6,69.7 318,69.7 340.1,69.7 340.1,101.6 353.3,101.6 353.3,69.7 
			376.7,69.7 376.7,57.4 		"/>
		<g id="XMLID_2557_">
			<path id="XMLID_2558_" class="st0" d="M457.6,57.4v44.3h13.1v-32h25.2h0.4c0.4,0,1.1,0.3,1.7,1c0.5,0.6,1,1.4,0.8,2.1v28.9H512
				V72.1c0-5-1-8.4-3.6-10.9l-1,1l1-1c-2.2-2.2-5.4-3.3-9.4-3.6h-1c-0.3,0-0.5,0-0.8,0h-39.6V57.4L457.6,57.4z"/>
		</g>
	</g>
	<g id="XMLID_3_">
		<path id="XMLID_8_" class="st0" d="M126.8,21.7C113.4,8.3,94.8,0,74.4,0C33.2-0.1,0,33.1,0,74.1s33.2,74.2,74.2,74.2
			c20.5,0,39-8.3,52.4-21.7s21.7-32,21.7-52.4S140.2,35.1,126.8,21.7z M74.2,139.8c-9.1,0-17.7-1.8-25.6-5.1s-14.9-8.2-20.9-14.1
			c-5.9-6-10.8-13-14.1-20.9S8.5,83.2,8.5,74.1s1.8-17.7,5.1-25.6c3.3-7.9,8.2-14.9,14.1-20.9s13-10.8,20.9-14.1s16.5-5.1,25.6-5.1
			s17.7,1.8,25.6,5.1s14.9,8.2,20.9,14.1c5.9,5.9,10.8,13,14.1,20.9s5.1,16.5,5.1,25.6c0,9-1.8,17.7-5.1,25.6s-8.2,14.9-14.1,20.9
			C108.8,132.5,92.4,139.8,74.2,139.8z"/>
		<path id="XMLID_22_" class="st0" d="M99.9,45.7c0,0,0.3-0.3,0.6-1c0.3-0.6,0.6-1.4,0.6-2.2c0-0.6-0.1-1.2-0.4-1.8
			c-0.6-1.1-1.4-1.8-2.2-2.1c-0.7-0.3-1.4-0.4-1.4-0.4H75.4c-0.3,0-0.7,0.1-1.4,0.3c-0.7,0.1-1.5,0.4-2.3,1
			c-1.4,0.8-2.2,2.1-2.2,2.1L40.2,81.9c0,0-0.3,0.4-0.5,1c-0.3,0.5-0.5,1.4-0.5,2.4c0,1.9,1.1,3.2,1.1,3.3l10,13.7
			c0,0,1.7,2.1,4.6,2.1s4.6-2.4,4.6-2.4L99.9,45.7z M100.1,42.5L100.1,42.5c0,0.7-0.3,1.4-0.4,1.8C99.8,43.8,100.1,43.2,100.1,42.5z
			"/>
		<path id="XMLID_23_" class="st0" d="M40.1,75.1L40.1,75.1l21.3-29.8c0,0,0.5-1,0.5-2.5c0-0.7-0.1-1.5-0.5-2.2
			c-1.1-2.4-3.7-2.5-4.2-2.5c0,0,0,0-0.1,0h-21L36,38.2c-0.5,0-1.9,0.1-3.3,1c-1.4,0.8-2.2,2.1-2.2,2.1L20.4,55.1
			c-0.1,0.1-1,1.2-1,2.9c0,1.8,1.4,3.5,1.4,3.6l9.8,13.6c0,0,1.8,2.1,4.8,2.1C38.2,77.3,40.1,75.1,40.1,75.1z"/>
		<path id="XMLID_24_" class="st0" d="M116.9,39.9c0,0-0.3-0.4-0.8-0.8c-0.6-0.4-1.2-0.8-2.3-0.8c-2.5,0-3.6,1.8-3.7,1.8l-50.2,69
			c0,0-0.3,0.4-0.5,1c-0.3,0.5-0.5,1.4-0.5,2.5c0,1.9,1.1,3.2,1.2,3.5l9.4,12.9c0.1,0.1,1.5,2.4,4.8,2.4c2.8,0,4.4-2.2,4.4-2.2
			l49.1-67.5c0,0,0.1-0.4,0.4-1c0.3-0.7,0.4-1.5,0.4-2.5l0,0c0-1.8-0.4-2.6-0.6-2.6L116.9,39.9z"/>
	</g>
</g>
</svg>
