<?xml version="1.0" encoding="utf-8"?>
<!-- Generator: Adobe Illustrator 26.0.3, SVG Export Plug-In . SVG Version: 6.00 Build 0)  -->
<svg version="1.1" id="Layer_2_00000055685079754845304460000010089715165664531093_"
	 xmlns="http://www.w3.org/2000/svg" xmlns:xlink="http://www.w3.org/1999/xlink" x="0px" y="0px" viewBox="0 0 214.6 127.4"
	 style="enable-background:new 0 0 214.6 127.4;" xml:space="preserve">
<style type="text/css">
	.st0{fill:#FFFFFF;}
</style>
<g>
	<path class="st0" d="M107.5,0C64.6,0,29.8,21.5,29.8,48.1s34.8,48.1,77.7,48.1s77.7-21.5,77.7-48.1C185.2,21.6,150.4,0,107.5,0z
		 M44.6,47.9c0-22.1,28.2-40,62.9-40c26,0,48.3,10,57.9,24.3c0.6,0.8,1.4,1.4,2.4,1.8l15.7,5.1h-14.6H70.1l4.6,8.8
		c1.3,2.5,3.8,4,6.6,4h45.4c0,0,25.7-0.2,24.7,13.6c-1,13.3-20.2,21.9-41.5,22.5c-0.8,0-1.6,0-2.5,0C72.8,87.9,44.6,70,44.6,47.9z"
		/>
	<path class="st0" d="M0,119.3L0,119.3c0,4.4,4.1,8,9.3,8h15.4v-9.5H11.5v3.3h7.4v2.8h-7.8c-2.6,0-4.7-2.1-4.7-4.7l0,0
		c0-2.6,2.1-4.7,4.7-4.7h13.5v-3.3H9.2C4.2,111.3,0,114.9,0,119.3z M53.3,119.3L53.3,119.3c0,4.4,4.1,8,9.3,8h14.3V124H64.5
		c-2.6,0-4.7-2.1-4.7-4.7l0,0c0-2.6,2.1-4.7,4.7-4.7h12.4v-3.3H62.6C57.5,111.3,53.3,114.9,53.3,119.3z M129.6,111.3h-3.3h-3H120
		c-5.1,0-8.2,3.6-8.2,8l0,0c0,4.4,3.1,8,8.2,8h3.3h3h3.3c5.1,0,8.2-3.6,8.2-8l0,0C137.8,114.9,134.7,111.3,129.6,111.3z M132,119.3
		c0,2.9-2.1,5.2-4.7,5.2h-1h-3h-1c-2.6,0-4.7-2.3-4.7-5.2l0,0c0-2.9,2.1-5.2,4.7-5.2h1h3h1C129.9,114.1,132,116.4,132,119.3
		L132,119.3z M179.9,111.3h-3.3h-3h-3.4c-5.1,0-8.2,3.6-8.2,8l0,0c0,4.4,3.1,8,8.2,8h3.3h3h3.3c5.1,0,8.2-3.6,8.2-8l0,0
		C188.1,114.9,185,111.3,179.9,111.3z M182.3,119.3c0,2.9-2.1,5.2-4.7,5.2h-1h-3h-1c-2.6,0-4.7-2.3-4.7-5.2l0,0
		c0-2.9,2.1-5.2,4.7-5.2h1h3h1C180.2,114.1,182.3,116.4,182.3,119.3L182.3,119.3z M37.1,111.3l-11.1,16h6.4l2.1-3.1H45l-2.3-3.5
		h-5.8l3.4-5l7.8,11.6h6.5l-11-16H37.1z M97.4,122.7l-5.5-11.4h-6.8v16h4.7v-11.4l5.4,11.4h4.6l4.7-10.9v10.9h4.7v-16h-6.7
		L97.4,122.7z M138.9,114.5h8.4v12.8h5.5v-12.8h8.3v-3.2h-22.3v3.2H138.9z M208.4,121.3c-0.4-0.4-0.9-0.6-1.4-0.7l-1.4-0.3l0,0
		c2.3-0.2,6.9-1,6.9-4.3c0-4.4-6.2-4.7-9.1-4.7s-3.8,0-3.8,0h-3.5h-5.8v16h5.8v-6.6h1.5c2.4,0,4.7,0.9,6.3,2.6l4,4.1h6.7
		L208.4,121.3z M203,118.1c-1.9,0-6.9,0-6.9,0v-4.2c0,0,5.3,0,6.9,0s4,0.5,4,2.1S204.9,118.1,203,118.1z"/>
</g>
</svg>
