<?xml version="1.0" encoding="utf-8"?>
<!-- Generator: Adobe Illustrator 26.0.3, SVG Export Plug-In . SVG Version: 6.00 Build 0)  -->
<svg version="1.1" id="Layer_1" xmlns="http://www.w3.org/2000/svg" xmlns:xlink="http://www.w3.org/1999/xlink" x="0px" y="0px"
	 viewBox="0 0 286.9 225.7" style="enable-background:new 0 0 286.9 225.7;" xml:space="preserve">
<style type="text/css">
	.st0{fill:#FFFFFF;}
</style>
<g transform="translate(0.000000,300.000000) scale(0.100000,-0.100000)">
	<path class="st0" d="M1075,2993.4c-71-5-184-13-250-18c-66-6-210-15-320-21c-221-11-275-20-349-59c-57-30-122-108-132-158
		c-3-18-10-33-15-33s-9-146-9-335c0-185,4-335,9-335s11-14,15-30c8-41,56-110,106-152c36-32,189-100,263-118c34-8,198-65,232-80
		c11-5,36-13,55-19c19-5,94-31,165-56c72-26,150-52,175-59s56-19,69-25c12-7,30-14,40-16c9-2,53-16,97-32c72-25,91-28,214-28
		c89,0,147,5,170,14c67,26,75,28,135,47c33,10,67,22,75,26s42,16,75,27s92,31,130,46c39,14,99,35,135,46s74,24,85,29s45,17,75,26
		s69,22,85,29c17,7,53,20,80,28c210,64,296,122,352,235l28,57l3,326c3,309,2,329-18,382c-29,78-86,138-162,172c-58,26-77,29-238,37
		c-96,5-218,13-270,18c-253,25-379,31-665,35C1345,3001.4,1147,2998.4,1075,2993.4z M1825,2879.4c696-48,766-54,819-73
		c57-20,91-59,113-129c12-40,13-95,8-338c-8-328-11-345-78-392c-66-47-605-236-953-333c-281-79-337-82-519-25
		c-443,137-463,143-800,267c-121,44-230,90-242,101c-13,11-32,39-43,62c-19,39-20,61-20,346c0,335,3,353,66,410c41,37,78,46,244,58
		c80,6,204,16,275,21c72,5,238,17,370,25c132,9,254,17,270,19C1378,2903.4,1582,2895.4,1825,2879.4z"/>
	<path class="st0" d="M1310,2874.4c-58-4-186-13-285-19c-729-45-778-51-834-101c-56-52-64-106-59-420c4-261,5-278,25-311
		c12-19,32-44,45-56c23-21,433-170,683-248c66-20,167-52,225-70c194-62,223-68,315-69c99,0,209,23,440,95c771,241,834,269,874,388
		c7,22,11,131,11,311v278l-28,52c-48,94-67,98-572,130c-179,11-408,27-508,35c-101,8-194,14-205,13
		C1425,2882.4,1368,2878.4,1310,2874.4z M1600,2784.4c47-5,133-12,193-16l107-6v-218v-218l-42-5c-24-4-97-13-163-22
		c-66-8-150-20-187-26c-48-8-88-8-145,1c-166,24-280,40-330,46l-53,6v218v218l108,7c59,4,136,11,172,15
		C1356,2795.4,1504,2795.4,1600,2784.4z M840,2553.4v-200l-47,6c-27,3-75,10-108,15c-138,21-265,40-340,51c-141,19-125,3-125,134
		c0,113,0,115,27,132c14,9,33,19,42,20c28,5,281,25,416,32c72,4,131,8,133,9C839,2753.4,840,2664.4,840,2553.4z M2284,2734.4
		c45-5,137-14,206-19c117-10,127-12,148-37c21-24,22-34,20-132l-3-107l-55-7c-30-3-100-14-155-23c-96-16-124-20-300-45
		c-44-6-88-13-97-16c-17-5-18,9-18,195v201h87C2165,2744.4,2240,2740.4,2284,2734.4z M370,2304.4c36-6,115-17,175-26
		c61-9,130-20,155-24s66-11,93-15l47-8v-198c0-110-1-199-3-199c-1,0-30,9-62,21c-33,12-67,22-75,24s-33,10-55,18s-53,19-70,23
		c-46,11-43,10-157,48c-128,42-185,70-192,93c-5,19-8,105-7,207l1,59l43-7C286,2317.4,334,2310.4,370,2304.4z M2660,2208.4
		c0-139-10-162-86-199c-28-14-57-25-64-25c-8,0-45-11-84-24c-86-29-248-81-296-95c-19-5-50-14-67-20l-33-10v198v198l53,7
		c28,3,75,10,102,15c60,11,241,38,345,52c41,6,76,12,79,15c2,2,15,4,28,4C2660,2324.4,2660,2323.4,2660,2208.4z M1170,2179.4
		c47-8,127-19,178-26c96-11,175-6,362,26c47,8,109,18,138,21l52,7v-196c0-213-2-220-58-233c-15-3-58-15-97-26c-38-11-101-26-138-34
		c-38-8-73-16-78-19c-4-3-41-6-81-7c-76-1-164,16-308,58c-47,14-102,30-122,36l-38,11v205v205l53-7
		C1061,2197.4,1123,2187.4,1170,2179.4z"/>
	<path class="st0" d="M625,2713.4c-55-5-153-13-218-18c-80-6-125-14-142-25c-25-16-26-20-23-113l3-97l155-22c277-40,375-54,398-59
		l22-5v175v175l-47-1C746,2722.4,680,2717.4,625,2713.4z"/>
	<path class="st0" d="M2058,2558.4c2-93,6-171,9-173c3-4,476,61,541,75c21,4,22,9,22,92c0,82-2,90-26,113c-27,25-44,27-450,55
		l-101,7L2058,2558.4z"/>
	<path class="st0" d="M1006,2002.4c3-101,9-186,13-190c3-3,76-23,161-43c85-21,159-42,165-46c13-12,151-11,173,1c9,5,89,28,177,50
		c88,23,165,46,172,51c8,7,10,32,7,77c-2,37-7,111-10,166l-6,98l-42-5c-22-3-93-15-156-26c-63-12-149-21-190-21c-74,0-232,24-363,54
		C988,2196.4,998,2212.4,1006,2002.4z"/>
	<path class="st0" d="M105,1199.4c-22-8-41-15-42-15c-2,0-10-16-18-36c-11-27-15-74-15-176c0-229-1-228,334-228h236v145v145H420H240
		v-50v-49l113-3l112-3l3-42l3-43H320H169l3,133l3,132l213,3l212,2v50v50H373C200,1213.4,135,1210.4,105,1199.4z"/>
	<path class="st0" d="M757,1199.4c-21-7-40-15-41-17c-21-24-26-66-26-210v-164l31-30l30-29l220-3l219-3v50v51l-182,2l-183,3l-3,43
		l-3,42h180h181v50v50H999H819l3,38l3,37l180,5l180,5l3,48l3,47H993C852,1213.4,784,1209.4,757,1199.4z"/>
	<path class="st0" d="M1350,1205.4c-77-19-90-51-90-227c0-232,3-234,305-234h206l-3,48l-3,47l-182,3l-183,2v45v45h180h180v50v50
		h-181h-180l3,38l3,37l183,3l182,2v50v50l-197-1C1464,1212.4,1364,1209.4,1350,1205.4z"/>
	<path class="st0" d="M1850,1034.4c0-192,9-248,45-271c15-11,75-15,238-17l217-3v50v51l-177,2l-178,3l-3,183l-2,182h-70h-70V1034.4z
		"/>
	<path class="st0" d="M2170,1208.4c0-5,131-158,219-254l50-55l1-77v-78h65h65v76v76l63,71c34,40,95,108,135,151c39,44,72,83,72,88
		c0,4-34,8-75,8h-76l-57-62c-31-34-73-79-93-100l-36-39l-33,38c-18,21-59,66-91,101l-59,62h-75C2204,1214.4,2170,1211.4,2170,1208.4
		z"/>
</g>
</svg>
