<?xml version="1.0" encoding="utf-8"?>
<!-- Generator: Adobe Illustrator 26.0.3, SVG Export Plug-In . SVG Version: 6.00 Build 0)  -->
<svg version="1.1" id="Layer_1" xmlns="http://www.w3.org/2000/svg" xmlns:xlink="http://www.w3.org/1999/xlink" x="0px" y="0px"
	 viewBox="0 0 211.1 114.4" style="enable-background:new 0 0 211.1 114.4;" xml:space="preserve">
<style type="text/css">
	.st0{fill:#FFFFFF;}
</style>
<path class="st0" d="M39.3,87l-4.7,8.2c-0.5,0-2,0-3.9,0c-2.1,0-4.1,0.2-6.1,0.4l4.9-8.6H16.9L2.6,112.8h12.6l3.2-6
	c1.3-2.4,4.1-4.9,7-5.2c1.2-0.1,2.4-0.2,3.5-0.2c0.9,0,1.7,0,2.2,0L25,112.8h12.6L51.9,87H39.3z M181.9,105.9L181.9,105.9
	c-0.1-0.4-0.4-0.5-0.5-0.8s0-0.6,0.2-0.9c0-0.1,5.1-9.1,6.2-11c1.4-2.3,3.4-4.1,5.8-5.4l1.5-0.7h-16.4l-0.1,0.2
	c-0.1,0.1-8.4,14.9-9.6,17c-1.6,2.9-1.2,5.9,1.2,7.5c1.7,1.2,6.4,1.2,6.6,1.2h24.3l6.6-7.1C207.7,105.9,181.9,105.9,181.9,105.9z
	 M66.7,91c-2.1,1.5-4.7,3.4-5.3,4l-19.8,17.8h12.1l3.2-3.2c2.2-1.7,5-2.6,7.8-2.6h0.2c2.6,0,5.1,0.2,6.2,0.2l-2.5,5.5h10.1L90.9,87
	H81C75.9,87.1,71.1,88.5,66.7,91z M73.9,101.1h-7.6l2.7-2.6c1.9-1.7,3.9-3.3,6-4.7c0.9-0.5,2-0.8,3.1-0.8L73.9,101.1z M159,86.9
	L159,86.9c-5,0.2-9.9,1.6-14.2,4.1c-2.2,1.5-4.7,3.5-5.4,4.1l-19.7,17.8h12.1l3.2-3.2c2.2-1.7,5-2.6,7.8-2.6h0.2
	c2.6,0,5.1,0.2,6.2,0.2l-2.5,5.5h10.1l12.1-25.9C168.9,86.9,159,86.9,159,86.9z M151.9,101.1h-7.6l2.7-2.6c1.9-1.7,3.9-3.3,6-4.7
	c0.9-0.5,2-0.8,3.1-0.8L151.9,101.1z M123.9,87l-15.7,12.9l-0.5-13H95.9l0.5,25.9h13L139.8,87H123.9z M107.6,71.6L107.6,71.6
	L107.6,71.6L107.6,71.6z M57.4,51.6c2.2,4.3,5.4,7.9,9.2,10.9c4.1,3.3,8.5,5.7,13.4,7.5c6,2.3,12.3,3.7,18.7,4.3c3,0.3,6,0.4,9,0.4
	c3.2,0,6.4-0.2,9.5-0.4c3.3-0.4,6.7-0.9,9.9-1.8c5.8-1.5,11.3-3.7,16.4-6.9c4.3-2.7,8-6,11-10.2c3.1-4.3,4.9-9.2,5.3-14.5
	c0.2-2.7-0.1-5.4-0.7-8c-1.2-5-3.6-9.4-7-13.2c-3.5-3.9-7.8-6.9-12.4-9.3c-5.8-2.9-11.9-4.7-18.2-5.8c-3.8-0.7-7.5-1.1-11.4-1.2
	c-5.5-0.2-10.9,0.1-16.4,0.9C90.3,5,87,5.7,83.8,6.7c-5.3,1.7-10.3,3.9-14.9,7.2c-4,2.8-7.5,6.3-10.2,10.5
	c-3.3,5.4-4.8,11.3-4.1,17.7C54.9,45.5,55.9,48.6,57.4,51.6z M60.5,36.5c0.6-5.2,2.5-9.8,5.7-13.8c3.1-3.9,6.8-6.9,11.1-9.3
	c4.5-2.5,9.4-4.2,14.5-5.3c3.2-0.7,6.4-1.1,9.6-1.3c3.8-0.3,7.5-0.3,11.3,0c6,0.4,11.9,1.6,17.6,3.7c4.9,1.8,9.5,4.3,13.5,7.8
	c3.7,3.2,6.7,7,8.4,11.8c0.8,2.2,1.4,4.5,1.6,6.9c0.6,6.7-1.3,12.6-5.2,17.9c-2.7,3.7-6.2,6.6-10,9c-4.6,2.9-9.6,4.8-14.8,6
	c-2.9,0.7-5.9,1.3-9,1.5c-2.4,0.2-4.8,0.3-7.2,0.4v-0.1c-2.7,0-5.4-0.1-8.1-0.4c-7-0.8-13.9-2.4-20.2-5.6c-4.2-2.1-8-4.8-11.3-8.3
	c-3.2-3.4-5.5-7.3-6.7-11.9C60.4,42.6,60.2,39.6,60.5,36.5z M72.9,60c2.7,2.1,5.6,3.5,8.8,4.8c4.2,1.6,8.4,3,12.9,3.3
	c2.2,0.1,4.5,0,6.7-0.7c2.4-0.8,4-2.6,4.7-5.1c0.4-1.9,0.6-3.8,0.6-5.8V22.3c0-0.6-0.1-0.7-0.6-0.4c-0.5,0.2-0.9,0.5-1.4,0.8
	c-5,2.6-10,5.2-15,7.8c-0.3,0.1-0.4,0.3-0.4,0.6c-0.1,3.5-0.3,7-0.4,10.5c-0.1,2.2-0.1,4.4-0.5,6.5c-0.4,2.3-1.4,4.3-3.1,5.8
	c-1.4,1.3-3.1,2-4.9,2.2c-1.5,0.1-3,0-4.4-0.6c-3.5-1.4-6-3.8-7.6-7.3c-1.9-4.2-2.5-8.5-1.8-13.1c0.6-3.9,2.2-7.5,4.6-10.6
	c3-3.9,6.8-6.9,11.1-9.2c5.4-2.8,11.2-4.3,17.2-5c1.9-0.3,3.8-0.4,5.7-0.5c3.1-0.2,6.2-0.2,9.3,0.2c3.3,0.4,6.6,1.1,9.8,2.1
	c4.5,1.4,8.8,3.2,12.8,5.9c4.3,2.9,7.5,6.7,9.6,11.5c0.9,2.2,1.6,4.5,1.8,6.9c0.2,2.1,0.1,4.1-0.2,6.2c-0.6,3.5-1.8,6.7-4.2,9.3
	c-2.7,3-5.9,4.5-9.9,4c-2.4-0.2-4.4-1.3-5.8-3.3c-1.7-2.2-2.3-4.8-2.4-7.5c-0.1-2.9-0.2-5.7-0.3-8.6c-0.1-1.6-0.2-3.2-0.2-4.7
	c0-1.3,0.1-1.3-1.1-1.9c-3.4-1.8-6.9-3.6-10.3-5.3c-1.7-0.9-3.3-1.8-5-2.7c-0.3-0.2-0.6-0.2-1-0.4c0,0.2,0,0.4-0.1,0.4v26.3
	c0,3.5,0.1,7,0.1,10.5c0,1.4,0.2,2.7,0.7,4c0.6,1.5,1.4,2.8,2.9,3.6c1.4,0.8,2.9,1.2,4.5,1.3c2.4,0.2,4.9,0.1,7.3-0.3
	c3.9-0.7,7.7-1.9,11.3-3.5c5.7-2.6,10.4-6.4,13.9-11.8c2-3.1,3.2-6.5,3.5-10.3c0.2-1.7,0.2-3.5,0.1-5.2c-0.1-1.2-0.2-2.3-0.4-3.4
	c-0.5-2.5-1.5-4.9-2.8-7c-2.4-4-5.5-7.3-9.3-9.9c-3.4-2.4-7.1-4.2-11-5.5c-6.2-2.1-12.5-3.2-19-3.4c-5.5-0.2-11,0.2-16.5,1.4
	c-4.1,0.9-8.2,2.2-12,4c-4.9,2.4-9.3,5.5-12.9,9.7c-3.4,3.9-5.4,8.5-5.9,13.8c-0.3,2.8-0.1,5.6,0.7,8.4C64.4,51.1,67.8,56.2,72.9,60
	z"/>
</svg>
