<?xml version="1.0" encoding="utf-8"?>
<!-- Generator: Adobe Illustrator 26.0.3, SVG Export Plug-In . SVG Version: 6.00 Build 0)  -->
<svg version="1.1" id="Layer_1" xmlns="http://www.w3.org/2000/svg" xmlns:xlink="http://www.w3.org/1999/xlink" x="0px" y="0px"
	 viewBox="0 0 417.8 94.2" style="enable-background:new 0 0 417.8 94.2;" xml:space="preserve">
<style type="text/css">
	.st0{fill:#FFFFFF;}
</style>
<g id="Layer_1_00000110448024323753148160000002335747459024279225_">
</g>
<g id="Layer_2_00000065785496305229284690000010274614166328266893_">
	<g>
		<path class="st0" d="M244.4,69.4H260V21.9h-15.6V69.4z M319.2,36.9v17.6c0,8.2,6.7,14.9,14.9,14.9H363v-8.8h-23.8
			c-3.4,0-6.2-2.8-6.2-6.2v-4.7h30v-8.1h-30v-4.7c0-3.4,2.8-6.2,6.2-6.2H363v-8.8h-28.9C325.9,21.9,319.2,28.6,319.2,36.9z
			 M265.5,36.8v17.7c0,8.2,6.7,14.9,14.9,14.9h33.9V41.6h-15.2v19h-13.3c-3.5,0-6.4-2.9-6.4-6.4v-17c0-3.5,2.9-6.4,6.4-6.4h28.5V22
			h-33.9C272.2,21.9,265.5,28.6,265.5,36.8z M403.7,45.6c5.9-0.4,10.5-5.2,10.5-11.2c0-6.9-5.6-12.4-12.4-12.4h-33.1v47.5h14.9V41.9
			V30.6h9.5c3.1,0,5.6,2.5,5.6,5.6c0,3.1-2.5,5.6-5.6,5.6h-9.4L400,69.3h17.8L403.7,45.6z M223,41.5h-16.8V21.9h-15.6v47.5h15.6
			V49.8H223v19.6h15.6V21.9H223V41.5L223,41.5z"/>
		<path class="st0" d="M78.4,0C35.1,0,0,21.1,0,47.1s35.1,47.1,78.4,47.1s78.4-21.1,78.4-47.1S121.8,0,78.4,0z M78.4,5.7
			c22.2,0,41.8,7.1,53.4,18c-8.2-0.2-24.7,1.7-39.1,9.7c-13.1,7.3-13.4-2-11.6-7s4.4-9.1-0.3-10.2c-4.6-1-12,5.6-22.7,16.2
			c-8.1,8-22.7,23.8-32.8,25.9c-3.8,0.8-7.5-0.6-10.5-3.7c-0.7-2.4-1.1-4.9-1.1-7.5C13.7,24.2,42.7,5.7,78.4,5.7z M78.4,88.6
			c-24,0-45-8.4-56.2-20.9c5.3,0.4,18.4,0.7,34.5-5.6c4.6-1.8,9.2-4.2,11.9-5.6c8.4-4.5,9.3,3,9,5.7c-0.6,5.1-3.9,9.4-2.9,11
			c1.1,1.7,4.2,4.1,12.3-2.2c8.1-6.3,26.7-27.1,34.9-32.2c7.3-4.6,11.6-7.9,18.2-4.2c2,4,3,8.2,3,12.6
			C143.2,70,114.2,88.6,78.4,88.6z"/>
	</g>
</g>
</svg>
