<?xml version="1.0" encoding="utf-8"?>
<!-- Generator: Adobe Illustrator 26.0.3, SVG Export Plug-In . SVG Version: 6.00 Build 0)  -->
<svg version="1.1" id="Layer_1" xmlns="http://www.w3.org/2000/svg" xmlns:xlink="http://www.w3.org/1999/xlink" x="0px" y="0px"
	 viewBox="0 0 2279.4 1068.9" style="enable-background:new 0 0 2279.4 1068.9;" xml:space="preserve">
<style type="text/css">
	.st0{fill-rule:evenodd;clip-rule:evenodd;fill:#FFFFFF;}
</style>
<path class="st0" d="M0,788.3h88.2v97h157.6v-97H333v272.3h-87.1V946H87.1v113.6H0V788.3L0,788.3z M342.9,788.3h86L519.3,893
	l89.3-104.7h84.9L562.3,954.8v105.8h-87.1V947.1L342.9,788.3L342.9,788.3z M704.5,788.3h87.1v210.6h140c22,0,36.4-22,36.4-45.2
	V788.3h87.1v217.2c0,34.2-38.6,54-60.6,54h-290V788.3L704.5,788.3z M1073.8,788.3h290c34.2,0,61.7,20.9,61.7,63.4V1060l-87.1,0.5
	V895.3c0-23.1-7.7-36.9-37.5-36.9h-131.2v202.9h-95.9V788.3z M1452,788.3h253.5c50.7,0,89.9,40.8,89.9,72.2v125.1
	c-0.6,22-31.4,74.9-70,74.9H1452V788.3L1452,788.3L1452,788.3z M1540.7,1000h133.8c19.3,0,34.2-14.3,34.2-32v-79.4
	c0-19.3-15.9-30.8-36.2-30.8h-131.8V1000L1540.7,1000z M1902.9,787.2h271.8v273.4h-97v-70.5h-167v70.5h-98.1V883.1
	C1810.3,823.6,1863.2,787.2,1902.9,787.2L1902.9,787.2z M1909.5,884.3v44h167.6v-69.5H1936C1919.4,858.9,1909.5,868.8,1909.5,884.3z
	 M2192.3,787.8h87.1v281.1h-87.1V787.8z M1145,0C783.6,0,490.6,144.7,490.6,323.1s293,323.1,654.4,323.1s654.4-144.7,654.4-323.1
	S1506.4,0,1145,0L1145,0z M1082.9,71.9c74.7-26.4,296.6,0,382.8,41.4c27.6,26.5-123,111.5-302.3,148.3
	C907.1,313.3,1028.9,115.6,1082.9,71.9z M642.7,454.7C586.3,414.5,476,299.5,658.8,180c96.6-56.3,150.6-69,217.2-82.8
	c32.2-6.9,55.2,1.1,26.4,25.3C841.5,185.7,715,394.9,703.5,440.9C694.4,472,676,480,642.7,454.7L642.7,454.7z M1169.1,588.1
	c-108,11.5-348.3-24.1-352.9-55.1c4.6-74.8,381.6-198.9,449.5-129.9C1294.4,457,1239.3,584.6,1169.1,588.1z M1718.6,370.8
	c-27.6,63.2-120.7,134.5-316.1,182.8c-29.9,6.8-40.3-11.5-20.7-28.8c32.2-19.5,187.4-279.3,206.9-331.1
	c11.5-26.5,33.3-16.1,47.1-5.7C1697.9,228.2,1745.1,293.8,1718.6,370.8L1718.6,370.8z"/>
</svg>
