<?xml version="1.0" encoding="utf-8"?>
<!-- Generator: Adobe Illustrator 26.0.3, SVG Export Plug-In . SVG Version: 6.00 Build 0)  -->
<svg version="1.1" id="Layer_1" xmlns="http://www.w3.org/2000/svg" xmlns:xlink="http://www.w3.org/1999/xlink" x="0px" y="0px"
	 viewBox="0 0 99.9 26.4" style="enable-background:new 0 0 99.9 26.4;" xml:space="preserve">
<style type="text/css">
	.st0{fill-rule:evenodd;clip-rule:evenodd;fill:#FFFFFF;}
</style>
<path class="st0" d="M28.7,0.5v16.8c0,4.5-3.4,8.2-7.7,8.2H7.6c-4.2,0-7.6-3.7-7.6-8.2V15h6.6c1.4,0,2,0.5,2,1.9v0.3
	c0,1.5,1.1,3.2,2.8,3.2h6c1.7,0,2.8-1.7,2.8-3.2V3.3c0-1.7,0.8-3.1,2.6-3.1h5.9V0.5z M30,25.5h6.2c0.8,0,1.5-0.6,2-1.2l9.1-14.8
	c0.2-0.3,0.5-0.6,0.8-0.6s0.6,0.3,0.8,0.6l3.6,5.7c0.5,0.8,0.2,1.1-0.8,1.1h-4.9c-0.8,0-1.7,0.6-2,1.2c-0.5,0.8-0.8,1.5-1.2,2.2
	c-0.6,0.9-0.3,1.5,0.8,1.5h10.7c1.1,0,1.5,0.3,2.2,1.2l1.1,1.7c0.5,0.6,1.4,1.2,2,1.2h6.2c0.8,0,0.9-0.6,0.6-1.2L53.4,1.6
	c-0.5-0.8-1.4-1.2-2-1.2h-6.6c-0.8,0-1.5,0.6-2,1.2L29.3,24.1C29,24.9,29.2,25.5,30,25.5z M76.7,9.6c2.3-4.2,7.9-5.4,12-1.5
	c0.5,0.3,0.6,0.8,1.1,0.8h7.7c0.9,0,1.5-0.3,1.7-0.8c0.2-0.3,0-0.8-0.5-1.4C95.6,2.8,90.9,0.3,84.6,0C77.7-0.3,70.3,2.5,67,8.5
	c-1.5,2.8-1.5,6.6,0,9.4c3.2,5.9,10.7,8.8,17.6,8.5c5.1-0.3,9.1-1.9,12.2-4.5c0.9-0.8,1.7-1.9,2.6-2.8c0.5-0.6,0.5-1.1,0.5-1.4
	c-0.2-0.5-0.8-0.8-1.7-0.8h-7.7c-0.8,0-1.5,1.4-2.2,1.9c-0.8,0.6-1.5,1.1-2.3,1.4c-3.6,1.2-7.4-0.3-9.3-3.6
	C75.5,14.2,75.5,11.8,76.7,9.6z"/>
</svg>
