<?xml version="1.0" encoding="utf-8"?>
<!-- Generator: Adobe Illustrator 26.0.3, SVG Export Plug-In . SVG Version: 6.00 Build 0)  -->
<svg version="1.1" id="Layer_1" xmlns="http://www.w3.org/2000/svg" xmlns:xlink="http://www.w3.org/1999/xlink" x="0px" y="0px"
	 viewBox="0 0 691.2 278.1" style="enable-background:new 0 0 691.2 278.1;" xml:space="preserve">
<style type="text/css">
	.st0{fill:#FFFFFF;}
</style>
<path class="st0" d="M401.1,144c0,1.3,0.4,2,1.2,2c0.6,0,1.2-0.3,1.7-0.6L619.3,5.5c3.6-2.5,8-3.9,12.4-3.8h47.3
	c7.3,0,12.1,4.9,12.1,12.1v90.4c0,10.9-2.4,17.2-12.1,23.1l-57.4,34.5c-0.6,0.4-1.2,0.7-1.9,0.7c-0.7,0-1.3-0.5-1.3-2.5V54.5
	c0-1.2-0.4-2-1.2-2c-0.6,0-1.2,0.3-1.7,0.6L458.1,155.4c-3.5,2.5-7.8,3.8-12.1,3.7H341.6c-7.3,0-12.1-4.9-12.1-12.1V16.7
	c0-1-0.4-1.8-1.2-1.8c-0.6,0.1-1.2,0.3-1.7,0.6L222.7,77.9c-1,0.6-1.3,1.1-1.3,1.6s0.2,0.9,0.9,1.6l74.2,74.2c1,1,1.7,1.7,1.7,2.5
	s-1.1,1.3-2.4,1.3h-67.1c-5.3,0-9.3-0.8-12.1-3.6l-45-45c-0.3-0.4-0.8-0.7-1.3-0.7c-0.5,0-1,0.2-1.4,0.5l-75.3,45.2
	c-4.6,2.7-7.7,3.6-12.2,3.6H12.1C4.9,159.1,0,154.3,0,147V58.3c0-10.9,2.4-17.2,12.2-23L69.9,0.5c0.5-0.3,1-0.5,1.6-0.5
	c0.9,0,1.3,0.9,1.3,2.9v118.7c0,1.2,0.3,1.8,1.2,1.8c0.6-0.1,1.2-0.3,1.7-0.7L271,5.3c4.6-2.8,7.5-3.6,12.9-3.6h105.1
	c7.3,0,12.1,4.9,12.1,12.1L401.1,144z"/>
<polygon class="st0" points="0,212.6 5.6,212.6 23.7,254.8 41.9,212.6 47.4,212.6 47.4,263.4 42.7,263.4 42.7,221.6 24.7,263.4 
	22.7,263.4 4.8,221.6 4.8,263.4 0,263.4 "/>
<path class="st0" d="M55,244.6c0-11.4,6.8-18.7,16.5-18.7s16.5,7.3,16.5,18.7v1.1c0,11.4-6.8,18.6-16.5,18.6S55,257.2,55,245.7
	L55,244.6z M71.5,260.6c7.2,0,11.8-5.5,11.8-14.9v-1.1c0-9.3-4.6-15-11.8-15s-11.8,5.7-11.8,15v1.1
	C59.7,255.1,64.3,260.6,71.5,260.6"/>
<polygon class="st0" points="94.7,226.9 106.5,258.5 118.5,226.9 123.1,226.9 109.1,263.4 103.8,263.4 89.8,226.9 "/>
<path class="st0" d="M124.9,244.2c0-10.7,6.5-18.3,16-18.3c9.1,0,15.2,6,15.2,18.7v1.9h-26.6c0.3,7.9,4.6,14.1,11.8,14.1
	c4.9,0,9.5-2,12.9-5.5v4.9c-2.7,2.5-7.4,4.4-12.9,4.4c-10.3,0-16.4-7.6-16.4-18.6L124.9,244.2z M151.5,242.9
	c-0.2-9.4-4.8-13.3-10.7-13.3s-10.9,5.1-11.3,13.3H151.5z"/>
<path class="st0" d="M162.9,226.9h4l0.5,7.5c2.3-4.5,6.6-8.5,12.5-8.5c5.6,0,9.2,3,10.3,8.8c2.5-4.6,6.8-8.8,12.8-8.8
	c6.8,0,10.7,4.4,10.7,12.8v24.7h-4.6v-24.1c0-6.4-1.8-9.7-6.8-9.7c-4.6,0-10.2,5.2-11.8,11v22.7H186v-24c0-6.4-1.7-9.7-6.8-9.7
	c-4.5,0-10.2,5.2-11.8,11v22.7H163L162.9,226.9z"/>
<path class="st0" d="M220.3,244.2c0-10.7,6.5-18.3,16-18.3c9.1,0,15.2,6,15.2,18.7v1.9h-26.6c0.3,7.9,4.6,14.1,11.8,14.1
	c4.9,0,9.5-2,12.9-5.5v4.9c-2.7,2.5-7.4,4.4-12.9,4.4c-10.3,0-16.4-7.6-16.4-18.6L220.3,244.2z M247,242.9
	c-0.2-9.4-4.8-13.3-10.7-13.3s-10.9,5.1-11.3,13.3H247z"/>
<path class="st0" d="M258.4,226.9h4l0.5,8.4c2.3-4.6,7.1-9.4,13.7-9.4c7.6,0,11.5,4.7,11.5,13.4v24.1h-4.5V240
	c0-6.7-1.9-10.4-7.6-10.4c-5.5,0-11.5,6.1-13,12.6v21.2h-4.5L258.4,226.9z"/>
<polygon class="st0" points="292.2,226.9 300.3,226.9 300.3,215.8 304.9,215.8 304.9,226.9 313,226.9 313,230.7 304.9,230.7 
	304.9,263.4 300.3,263.4 300.3,230.7 292.2,230.7 "/>
<polygon class="st0" points="333.6,226.9 341.7,226.9 341.7,215.8 346.2,215.8 346.2,226.9 354.3,226.9 354.3,230.7 346.2,230.7 
	346.2,263.4 341.7,263.4 341.7,230.7 333.6,230.7 "/>
<path class="st0" d="M359.5,212.2h4.5v22.9c2.3-4.5,7.2-9.2,13.6-9.2c7.6,0,11.5,4.7,11.5,13.4v24.1h-4.5V240
	c0-6.7-1.9-10.4-7.6-10.4c-5.4,0-11.3,6-12.9,12.3v21.5h-4.5V212.2z"/>
<path class="st0" d="M397,248c2-3,6-4.4,13.4-5.8l9.8-1.9c0-7.1-3.1-10.7-9.9-10.7c-4.7,0-9.2,2-12.4,5.4v-4.6
	c3.4-3,7.8-4.6,12.4-4.5c8.7,0,14.4,4.3,14.4,13.4v24.1h-3.3l-1.1-6.3c-3.3,4.5-8.6,7.2-14.2,7.3c-6.4,0-10.8-3.5-10.8-10.4
	C395.2,251.9,395.8,249.8,397,248 M407,260.6c4.4,0,10.1-2.9,13.2-8.6v-8l-7,1.3c-5,0.9-10.1,1.6-12.2,4.4c-0.9,1.2-1.3,2.7-1.2,4.1
	C399.9,258.5,402.8,260.7,407,260.6"/>
<polygon class="st0" points="428.8,226.9 436.9,226.9 436.9,215.8 441.5,215.8 441.5,226.9 449.5,226.9 449.5,230.7 441.5,230.7 
	441.5,263.4 436.9,263.4 436.9,230.7 428.8,230.7 "/>
<path class="st0" d="M474.9,213.5h4.5v6.5h-4.5V213.5z M474.9,226.9h4.5v36.5h-4.5V226.9z"/>
<path class="st0" d="M488.3,226.9h4l0.5,8.4c2.3-4.6,7.2-9.4,13.7-9.4c7.5,0,11.5,4.7,11.5,13.4v24.1h-4.5V240
	c0-6.7-1.9-10.4-7.6-10.4c-5.5,0-11.5,6.1-13,12.6v21.2h-4.5V226.9z"/>
<path class="st0" d="M524.9,255c3.3,3.8,6.7,5.6,11.3,5.6c5.3,0,8.9-2.4,8.9-6.4c0-2.7-0.9-4.7-5.6-6.7l-5.5-2.3
	c-5.8-2.5-8.6-5.5-8.6-10c0-4.9,4.3-9.4,12-9.4c4.1,0.1,8,1.5,11.2,4.1v5.2c-3.5-3.7-7.6-5.6-11.2-5.6c-5.2,0-7.3,2.7-7.3,5.7
	c0,2.6,2,4.1,6.2,5.8l5.3,2.3c6,2.5,8.3,5.8,8.3,10.7c0,6.2-5.5,10.3-13.6,10.3c-5.8,0-9-1.9-11.4-4.1L524.9,255z"/>
<path class="st0" d="M556.5,226.9h4l0.4,6.5c2.6-4.4,7.2-7.5,12.3-7.5c9.3,0,15.8,7.6,15.8,19.2s-6.5,19.3-15.8,19.3
	c-5.1,0-9.5-3.1-12.2-7.3v21h-4.5V226.9z M572.8,260.6c6.9,0,11.6-6.2,11.6-15.6s-4.7-15.4-11.6-15.4c-5.1,0-10,4.6-11.8,10.2v10.6
	C562.8,256,567.7,260.6,572.8,260.6"/>
<path class="st0" d="M596,213.5h4.5v6.5H596V213.5z M596,226.9h4.5v36.5H596V226.9z"/>
<path class="st0" d="M609.5,226.9h4l0.4,6.5c2.2-4.5,5.7-7.5,10.9-7.5c1.2,0,2.5,0.2,3.7,0.5v4c-1.3-0.4-2.6-0.6-4-0.6
	c-4.5,0-8.6,3.5-10.4,9v24.5h-4.5L609.5,226.9z"/>
<path class="st0" d="M630.2,244.2c0-10.7,6.5-18.3,16-18.3c9.1,0,15.2,6,15.2,18.7v1.9h-26.6c0.3,7.9,4.6,14.1,11.8,14.1
	c4.9,0,9.5-2,12.9-5.5v4.9c-2.7,2.5-7.3,4.4-12.9,4.4c-10.3,0-16.4-7.6-16.4-18.6L630.2,244.2z M656.9,242.9
	c-0.2-9.4-4.8-13.3-10.7-13.3s-10.9,5.1-11.3,13.3H656.9z"/>
<path class="st0" d="M666.3,255c3.3,3.8,6.7,5.6,11.4,5.6c5.3,0,8.9-2.4,8.9-6.4c0-2.7-0.9-4.7-5.6-6.7l-5.5-2.3
	c-5.8-2.5-8.6-5.5-8.6-10c0-4.9,4.3-9.4,12-9.4c4.1,0.1,8,1.5,11.2,4.1v5.2c-3.5-3.7-7.6-5.6-11.2-5.6c-5.2,0-7.3,2.7-7.3,5.7
	c0,2.6,2,4.1,6.2,5.8l5.3,2.3c6,2.5,8.3,5.8,8.3,10.7c0,6.2-5.5,10.3-13.6,10.3c-5.8,0-9-1.9-11.4-4.1L666.3,255z"/>
</svg>
