<?xml version="1.0" encoding="utf-8"?>
<!-- Generator: Adobe Illustrator 26.0.3, SVG Export Plug-In . SVG Version: 6.00 Build 0)  -->
<svg version="1.1" id="Layer_1" xmlns="http://www.w3.org/2000/svg" xmlns:xlink="http://www.w3.org/1999/xlink" x="0px" y="0px"
	 viewBox="0 0 385.5 211.1" style="enable-background:new 0 0 385.5 211.1;" xml:space="preserve">
<style type="text/css">
	.st0{fill-rule:evenodd;clip-rule:evenodd;fill:#FFFFFF;}
</style>
<g id="Слой_x0020_1">
	<g id="_2191339358944">
		<path class="st0" d="M125,106.8c-2.1-1.5-5.8-9.9-7.1-13c-6.4-15.8-3.3-33.3,5.4-47.6c1.1-1.8,2.4-3.8,3.7-5.3l4.4-5
			c0.2-0.3,0.2-0.2,0.5-0.6c0.4-0.4,0.2-0.2,0.5-0.6l8.8-7.4c21-15.7,50.2-20.2,76.6-15.4c6.1,1.1,11.3,2.9,16.4,4.8
			c5.2,1.9,9.8,4.3,14.2,7c3,1.8,10.3,6.8,12,9.2h-10.8l-28,53.2c-1.1,2.1-6.1,11-6.5,12.6c3,0,4.9,0.4,7.5,0.4h24.5
			c0.4-1.8,2.1-3.3,2.5-5H228L240.9,84c5.1-4.1,13.7-12.4,17-17.9c0.7-1.3,1.3-2.3,2-3.7c1.6-2.9,8.6-17.7,9.1-20
			c1.7,1.3,6.7,10.4,7.7,13.2c4.6,12.9,5.4,23.6,1,36.9c-4.2,12.6-13.2,22.8-23.4,30.5c-14.1,10.6-35.2,17.6-54.3,17.6
			c-7.5,0-15.8-0.3-22.9-1.9c-12.9-3-24.5-7-35.2-14.7c-1.3-0.9-4.9-3.5-5.5-4.5h21.2c2.7,0,4.6-0.4,6.8-0.4c1-1.9,3.9-6.8,4.3-8.6
			h-34.5l10.8-6.8c3.6-2.2,7-4.6,10.6-7c5.5-3.7,15.3-11.2,19.6-15.6c3.1-3.2,5.7-5.5,8.4-9.2s4.4-6.9,6.5-11.1c1-2,1.8-4.1,2.6-6
			c1.6-3.9,3.3-9.7,4.2-13.8c0.6-2.6,1.2-4.8,1.2-7.8H165c-1.4,0-3.4,5.1-4.1,6.4l-6.3,11.6c-2.7,4.7-7,13.7-9.9,18.5
			c-1.8,3-3.3,6.2-4.9,9.1L125,106.8L125,106.8z M97,73c0,12.2,1.7,19.5,6.7,29.6c1.3,2.6,2.6,4.5,4.1,6.7
			c5.5,8.3,13.2,15.7,21.4,21.4c13.2,9.2,29.6,15.3,45.5,18.1c14.8,2.6,30.7,2.6,45.5,0.1c7.2-1.2,10.4-2.2,17.3-4.3
			c9-2.7,21.6-8.8,29-14.2c13-9.4,23.3-20.8,28.7-36c4.4-12.6,4-25.7-0.2-38.2c-2.8-8.3-6.9-14.2-12-20.8c-3.9-5-12.1-12-17.2-15.5
			c-8.7-5.8-15.1-9.1-25.1-12.6c-6.5-2.3-14.8-4.6-21.8-5.5c-22-3-36.6-2.6-59.1,3.8c-6.8,1.9-11.2,4-17.3,6.8l-5.4,2.9
			c-1.2,0.7-2.3,1.3-3.4,2c-3.7,2.2-6.4,4.3-9.7,6.9l-4.2,3.7c-6.8,6-11.2,11.7-15.6,19.7c-1.3,2.4-2.4,4.5-3.4,7.4
			c-1.1,2.9-1.7,5.1-2.4,8.3C97.7,65.8,97,70,97,73L97,73z"/>
		<path class="st0" d="M347.5,192.4c-2.6,0-4.9-1.9-6.6-2.9l-14.2-9.6c-5.5-4.1-13.8-9.5-19.8-13.8c-3.7-2.7-10.2-4-12.7,1.1
			l-14.5,34.2c-0.7,1.5-3.8,8.4-3.8,9.5h22.6l10.5-24.8c2-5,4.1-2.4,8.2,0.5c1.9,1.3,3.7,2.4,5.6,3.7l22.1,14.7
			c2.3,1.5,9.5,5.8,12.8,5.8c8.7,0,10.5-7.5,13.5-14.5l14.3-33.1H362c-0.3,1.4-8.7,20.4-9.7,22.9c-0.5,1.4-1,2.4-1.6,3.8
			C350.1,191.3,349.1,192.4,347.5,192.4L347.5,192.4z"/>
		<path class="st0" d="M117.1,210.9c4,0,7.2,0.2,11.2,0.2c3.9,0,7.8,0,11.7,0l6.8-16.1c0.3-0.8,0.8-1.4,0.9-2.4h53.9
			c0.3-1.3,1-2.5,1.6-3.8c0.3-0.7,0.5-1.3,0.8-2c0.4-0.8,0.7-1.1,0.9-1.9H151c0.5-0.9,0.8-1.9,1.3-2.9l2.7-6.1
			c0.4-0.9,1.1-2.4,1.3-3.1h64.1c0.7-1.4,3.9-8.3,4-9.6h-86.3c-0.8,0-1,1.1-1.6,2.6L121,201.7c-0.4,1.1-0.9,2.1-1.3,3.1
			c-0.5,0.9-0.8,1.9-1.3,2.9C118,208.7,117.3,210,117.1,210.9L117.1,210.9z"/>
		<path class="st0" d="M0,202c0,5.1,1.7,9.1,7.7,9.1H83c1.3,0,1.2-0.6,1.9-2.3l2.5-5.9c0.5-1.1,0.9-1.7,1.2-3
			c-18.8,0-39.1,0.2-57.8,0c-9.6-0.1-5.8-4.4-1.9-13.4c0.3-0.8,0.7-1.3,1-2.1l3.7-8.6c0.6-1.6,1.3-3,1.9-4.4c0.3-0.8,0.6-1.3,1-2.1
			c0.3-0.7,0.5-1.4,0.9-2.2c0.3-0.7,0.6-1.4,0.9-2.1c0.4-0.7,1.3-1.8,0.1-1.8H15.9c-0.9,0-2,3.6-2.4,4.4
			c-3.7,9.1-8.7,19.5-12.3,28.5C0.5,197.7,0,199.8,0,202L0,202z"/>
		<path class="st0" d="M184.7,210.6h14.9c0.8-0.1,8.1-6.1,8.6-6.5l22.6-17.7c9.3-7.4,9.5-3,11.7,5.6l2.8,11.2h-21.7v7.7h47.6
			l-11.1-34.4c-0.5-1.5-0.9-2.7-1.4-4.2s-0.8-2.7-1.4-4.2c-1-2.9-3.2-4.4-6.6-4.8c-3.1-0.4-7,0.5-9,2.1l-14.2,11.2
			c-6.5,4.8-14.2,11.4-20.8,16.3c-0.6,0.5-0.9,0.7-1.5,1.3l-11.1,8.7c-1.2,0.9-2.1,1.7-3.3,2.6l-4.7,3.7
			C185.4,209.7,184.9,209.9,184.7,210.6L184.7,210.6z"/>
		<path class="st0" d="M91,210.9h20.5c0.1-0.8,0.8-2.3,1.2-3l16.4-38.4c0.5-1.2,2.4-5.1,2.5-6.1h-20.3l-5.1,11.7
			c-0.9,2-1.6,3.9-2.6,5.8L101,187c-0.9,2-1.7,3.8-2.5,5.9c-0.5,1.1-0.8,2-1.3,2.9c-0.5,1-0.8,2-1.3,3.1
			C95.2,200.3,91,209.9,91,210.9L91,210.9z"/>
		<path class="st0" d="M170,108.2h39.9l4.7-8.3h-27.3c0.6-0.9,1-1,1.9-1.7c6.1-4.1,17.5-13.2,23.1-17.9c0.8-0.6,1.1-1.1,1.9-1.7
			c1-0.8,1.2-0.9,2.1-1.8l5.4-5.8c6.6-7.3,18.2-29.2,18.4-38L211,32.7c-1.6,0-4.9,7.5-5.6,8.8c-1.9,3.1-3.3,6.4-5.1,9.7l-15.2,28.3
			c-0.8,1.6-1.7,3.3-2.5,4.7c-0.9,1.7-1.6,3.3-2.6,5L170,108.2L170,108.2z"/>
	</g>
</g>
</svg>
