<?xml version="1.0" encoding="utf-8"?>
<!-- Generator: Adobe Illustrator 26.0.3, SVG Export Plug-In . SVG Version: 6.00 Build 0)  -->
<svg version="1.1" id="Layer_1" xmlns="http://www.w3.org/2000/svg" xmlns:xlink="http://www.w3.org/1999/xlink" x="0px" y="0px"
	 viewBox="0 0 595.2 595.3" style="enable-background:new 0 0 595.2 595.3;" xml:space="preserve">
<style type="text/css">
	.st0{fill:#FFFFFF;}
</style>
<path class="st0" d="M240.4,326.1h39.1l-20.2-46L240.4,326.1z M595.2,292.4c-4.9-37.3-63.4-50.1-63.4-50.1L427,215.2
	c-84.9-22-173.9-22-258.8,0L63.4,242.3C88.4,136,183.8,57,297.6,57c109.8,0,202.4,73.5,231.3,174h58.9C557.5,98.7,439.2,0,297.6,0
	C134.2,0,1.5,131.6,0,294.7c1.4,95.6,56.3,94.1,58.9,94.1c3.3,0,10.4,0,16,0h7.5h437.9c-35.9,87.7-122.1,149.5-222.7,149.5
	c-95.2,0-177.4-55.3-216.4-135.4H19.1c42.5,112.6,151.1,192.4,278.5,192.4c164.3,0,297.6-133.3,297.6-297.6
	C595.3,296,595.2,294.2,595.2,292.4z M123.1,364.7c-62.9,0-61.4-36.3-61.4-36.3s26,0,30.7,0c0.3,5.8,6,14.1,9.4,15.3
	c37.9,14.1,73.5-16.8,17.5-24.6c-54.1-7.5-61.7-32.7-45.9-47.9c15.8-15.2,39.7-15.8,57.3-15.8s42.7,7.3,48.1,32.5
	c-4.9,0-35.2,0-35.2,0c0-14.1-29-18.3-41.8-13.3c-3.4,1.3-4.6,3.9-5.5,6c-2.6,6.5,4.9,10.6,37.9,15.6s43.7,15.2,46.4,25.1
	C183.1,331.4,186,364.7,123.1,364.7z M294.6,363.7l-7.2-18.3h-55.3l-7.9,18.3h-39.3l52.8-106h43.8l52.1,106H294.6z M383.6,363.7
	h-37.2v-106h37.2V363.7z M468.9,345.6c13.1,0,28.9-2.8,32.9-22.7c0,0,29,0,33.5,0c-2.5,16.7-13.6,31.3-39.4,39.1
	c-26,7.8-93.5,7.2-93.5-48.1s48-58.5,63.9-59c16.1-0.4,54.5,2.5,69,39.1h-35.2c-3.1-12.6-14.6-15.8-29.6-15.8s-34.7,4.9-34.7,32
	C436,337.3,455.9,345.6,468.9,345.6z"/>
</svg>
